<svg width="167" height="263" viewBox="0 0 167 263" fill="none" xmlns="http://www.w3.org/2000/svg">
<path d="M27.5195 0.251278C16.5895 2.03888 7.27372 8.9732 2.4116 18.9131C1.41973 20.9561 0 24.8259 0 25.4938C0 25.7099 0.408416 25.8867 1.47808 26.142C2.29491 26.3385 2.99505 26.4564 3.0145 26.4367C3.0534 26.3974 3.38402 25.3956 3.77299 24.217C7.19591 13.8646 15.6559 6.28198 26.4887 3.86577C27.7529 3.59075 29.3282 3.4336 31.7009 3.35504C34.6182 3.25681 35.4544 3.31574 37.5159 3.66933C51.1104 6.00697 61.3208 16.9683 62.7988 30.837C62.9157 31.8977 63.0128 33.2924 63.0128 33.98C63.0128 35.0801 62.9547 35.2569 62.3906 35.8462L61.7487 36.5141L62.2935 36.9463L62.8186 37.3784L62.5069 39.2446C61.7098 43.9199 59.3954 49.2041 56.5365 52.8775L55.9336 53.6437L55.7002 52.9365C55.5641 52.5436 55.3502 51.5614 55.214 50.7363C54.9806 49.3416 54.9806 49.1648 55.3113 48.6148C58.034 43.9591 59.2399 40.0304 59.4537 35.1193C59.6483 30.5816 58.8314 26.4957 56.8866 22.4294C53.6192 15.495 48.1737 10.6037 41.075 8.20706C40.0832 7.87316 39.208 7.63739 39.1107 7.69637C38.8774 7.85348 38.4495 9.99471 38.644 10.1518C38.7217 10.2304 39.5191 10.5251 40.3943 10.8198C44.0506 11.9984 47.0262 13.8449 49.9046 16.7522C54.6305 21.4668 57.0032 27.2618 57.0227 33.98C57.0227 36.4944 56.9838 36.7105 56.5171 37.5159C55.5057 39.2839 54.5917 42.093 54.261 44.5092C54.0471 46.0807 53.5998 47.004 52.0245 49.0666C47.4541 55.0384 40.4332 58.4957 32.8678 58.4957C26.2359 58.4957 20.2264 55.9813 15.5393 51.2471C11.9608 47.613 9.62693 43.1145 8.73231 38.0659C8.3628 36.0623 8.42113 31.4852 8.8296 29.6387C8.98516 28.8333 9.12129 28.1654 9.08239 28.1458C8.94625 28.0475 6.35961 27.4582 6.30128 27.5171C6.04845 27.7529 5.64004 31.7209 5.64004 33.8621C5.64004 47.1611 15.0142 58.4171 28.064 60.7941C30.5924 61.2458 34.8904 61.2066 37.4576 60.6959C41.3473 59.91 44.459 58.5939 47.8042 56.3349C49.535 55.1759 52.4134 52.5043 53.6192 50.972L54.1832 50.2452L54.7083 52.3471L55.2335 54.4687L54.2221 55.4902L53.2108 56.5313H51.9272C50.6436 56.551 48.1348 56.9438 47.9014 57.1795C47.6291 57.4546 48.0376 57.5332 48.7571 57.3367C49.1655 57.2188 50.2352 57.0617 51.1493 57.0027L52.8024 56.8849L52.1412 57.4546C48.3681 60.6173 43.72 62.9156 38.7412 64.055C36.1935 64.6247 29.3671 64.6835 26.9555 64.1337C26.0998 63.9569 25.3996 63.8195 25.3607 63.8389C25.1857 64.0157 24.5439 67.0605 24.6606 67.1585C24.9329 67.434 27.9473 67.9251 30.2812 68.1018C36.1352 68.5535 41.9502 67.414 47.6097 64.6641C50.1574 63.4459 51.6939 63.1123 53.872 63.2691C56.7893 63.5047 59.5121 64.7228 61.7487 66.8443C62.2737 67.3353 62.7598 67.7283 62.8186 67.7283C62.8767 67.7283 63.4019 67.3353 63.966 66.8443C64.53 66.3533 65.0552 65.9604 65.1325 65.9604C65.2302 65.9604 65.8524 66.2159 66.5328 66.5301C67.233 66.8443 68.264 67.2373 68.8665 67.414L69.9365 67.7283L70.4808 69.1626C72.6784 74.8199 71.9782 81.4986 68.692 86.5081C68.089 87.4114 67.5441 88.1579 67.4668 88.1579C67.2528 88.1579 66.3776 85.9971 65.8914 84.3273C65.5023 82.9523 65.4436 82.3438 65.4634 79.4165C65.4634 75.5077 65.7745 74.1127 67.194 71.186C67.9331 69.673 68.0111 69.3587 67.7971 69.1232C67.5639 68.9071 67.4278 69.0252 66.9219 69.9091C66.0466 71.4409 65.2302 73.6804 64.8603 75.5664C64.5882 76.8433 64.5492 77.8647 64.6271 80.183C64.7243 83.3846 65.0162 84.7402 66.1438 87.5101C66.8247 89.16 66.8247 89.1793 65.0743 90.6724C64.2771 91.3402 64.0631 91.4582 64.0241 91.1834C63.8688 90.4562 60.1539 91.3402 58.1118 92.5977L56.9838 93.2855L55.9725 92.9707C55.4279 92.8139 54.5528 92.6764 54.0277 92.6764C53.133 92.6764 53.0941 92.6958 53.0941 93.2461C53.0941 93.7959 53.1135 93.7959 54.3777 93.914C55.0778 93.9533 55.6808 94.0514 55.7391 94.1101C55.7974 94.1695 55.7197 94.3856 55.5835 94.6211C55.3502 94.9941 55.1556 95.0334 53.4442 95.0334C51.2855 95.0334 49.7296 95.4464 48.2515 96.389C46.19 97.7246 44.5952 100.082 44.1479 102.479C43.8756 103.952 43.895 104.07 44.4007 104.07C44.8091 104.07 44.8869 103.932 45.1008 102.773C45.8204 98.766 49.3017 95.7999 53.2497 95.8193C54.261 95.8193 54.475 95.9961 54.1832 96.5658C53.9693 96.9588 53.7554 97.0375 52.6857 97.1156C51.2465 97.2143 49.4767 97.9608 48.3681 98.9622C47.9792 99.3158 47.3374 100.239 46.9484 101.044C46.3066 102.321 46.2288 102.636 46.2483 104.011C46.2483 105.975 46.7734 107.429 47.9597 108.764C48.9711 109.904 50.7603 110.887 52.1801 111.063C52.9969 111.181 53.0941 111.161 53.0941 110.827C53.0941 110.513 52.8608 110.395 51.9078 110.218C48.8738 109.629 46.6178 106.584 46.929 103.52C47.2402 100.534 49.5545 98.1376 52.4134 97.8427C53.5609 97.7246 53.5609 97.7246 53.3081 98.4318C53.1719 98.7854 52.8997 98.9428 52.0634 99.139C50.2158 99.5519 48.8349 100.829 48.3098 102.636C47.9597 103.795 47.9597 104.345 48.3487 105.622C48.9905 107.802 51.4021 109.373 53.6582 109.118C54.5528 109.02 54.5528 109.02 55.6613 110.218C56.4393 111.063 56.7115 111.456 56.5365 111.574C56.167 111.81 55.0195 112.124 54.0277 112.261C53.2108 112.36 53.0941 112.438 53.0941 112.851C53.0941 113.283 53.1525 113.302 53.9304 113.185C55.1946 113.008 56.2253 112.713 57.0032 112.32C57.6645 111.967 57.7034 111.967 58.2285 112.32L58.7731 112.674L57.9368 113.165C56.0114 114.285 53.4053 114.678 51.1493 114.206C46.6178 113.244 43.506 109.786 42.8837 104.993C42.7865 104.188 42.7087 104.07 42.2808 104.07C41.853 104.07 41.8141 104.148 41.8141 104.875C41.8141 106.938 43.1171 110.022 44.7896 111.849C47.9986 115.404 53.2886 116.504 57.7229 114.56C58.2868 114.304 59.0259 113.911 59.3371 113.676C59.9205 113.263 59.9399 113.263 61.5542 113.597C67.5441 114.874 73.4373 111.22 74.9539 105.307C75.129 104.639 75.265 103.756 75.265 103.304C75.265 102.577 75.2069 102.498 74.7987 102.498C74.3707 102.498 74.3125 102.616 74.1956 103.52C73.6315 107.861 70.6169 111.338 66.5136 112.418C65.2494 112.753 62.2155 112.753 61.3986 112.418C61.0679 112.281 61.0679 112.242 61.4764 111.809C61.8655 111.397 62.0207 111.358 62.9738 111.476C64.0049 111.594 64.0241 111.574 63.9462 111.122C63.9072 110.748 63.7519 110.631 63.246 110.592C62.8959 110.552 62.6238 110.474 62.6819 110.395C62.7209 110.317 63.032 109.61 63.4019 108.824C63.9851 107.547 64.1212 107.409 64.6074 107.409C65.9495 107.409 67.5639 106.309 68.3803 104.816C69.1194 103.461 69.1782 101.477 68.517 100.22C67.6802 98.6286 66.4165 97.6659 64.8603 97.4498C63.6548 97.2924 63.713 97.6853 64.9574 97.9801C67.7971 98.6679 69.2363 101.693 67.9919 104.384C67.447 105.563 66.5328 106.349 65.2302 106.742C64.7243 106.898 64.2771 106.996 64.2381 106.957C64.2183 106.918 64.2573 106.25 64.355 105.484C64.7051 102.636 64.0241 99.8461 62.3708 97.4104C61.7098 96.4284 61.7876 96.3103 63.207 96.1142C64.1212 95.9961 65.5023 96.2122 66.6299 96.7033C67.6418 97.1356 69.1392 98.6679 69.6446 99.8068C70.2668 101.202 70.2866 103.559 69.6835 104.895C68.8083 106.82 66.8439 108.352 64.8214 108.686C64.1991 108.784 63.9851 108.902 63.9851 109.157C63.9851 109.472 64.102 109.492 65.0935 109.334C69.5666 108.627 72.1533 103.775 70.3058 99.6106C69.6835 98.2157 68.264 96.7226 66.9219 96.0748C65.5605 95.4264 63.3821 95.2496 62.0015 95.6819C61.1263 95.9567 61.0874 95.9567 60.6595 95.5051L60.2511 95.0534L60.9902 94.7192C61.4375 94.523 62.4685 94.3462 63.499 94.3069C64.9383 94.2282 65.4634 94.2869 66.4938 94.6405C69.5085 95.6619 71.4729 97.9995 72.0172 101.241C72.1922 102.243 72.3091 102.498 72.5813 102.498C73.1064 102.498 73.2035 102.027 72.9512 100.769C72.1149 96.5071 68.2442 93.2655 64.0049 93.2655H62.9547L64.102 92.4603C64.7243 92.028 65.6966 91.2227 66.2415 90.6924L67.233 89.7103L67.7389 90.4956C70.6367 94.916 75.557 98.1176 80.8861 99.0603C82.9279 99.4338 82.8499 99.4338 82.8499 98.9622C82.8499 98.5499 82.6749 98.4912 81.0024 98.275C79.68 98.0982 77.1713 97.273 75.7518 96.5458C73.0285 95.1709 70.2668 92.7551 68.6723 90.3581L67.8552 89.1206L68.7502 87.9031C69.9365 86.292 71.2589 83.5614 71.8811 81.3812C72.8924 77.8647 72.7174 73.032 71.4729 69.5162C71.2008 68.7697 70.9868 68.1212 70.9868 68.0425C70.9868 67.9051 72.3673 68.1018 72.5232 68.2393C72.5621 68.2786 72.4452 68.4948 72.2312 68.7303C71.8811 69.1232 71.8811 69.1426 72.9314 70.0859C73.5146 70.6163 74.0596 71.0479 74.1567 71.0679C74.2346 71.0679 74.9737 70.4982 75.7902 69.791C78.4548 67.5515 80.7884 66.6675 84.1142 66.6675C85.8256 66.6675 87.44 66.9424 88.6844 67.434C88.9182 67.5121 89.1322 67.1979 89.5986 66.0584L90.2208 64.5854L89.5596 64.3105C87.9843 63.6427 85.9815 63.3672 83.4728 63.4459C81.3333 63.5246 80.7495 63.6227 79.1549 64.1731C77.1324 64.8603 76.1013 65.4106 74.5067 66.6088C73.4763 67.3747 73.4565 67.3747 72.2312 67.2572C70.6169 67.0998 70.4808 67.0211 70.0144 66.2552C69.5864 65.5481 68.9252 65.4887 69.1003 66.1765C69.1584 66.3927 69.1003 66.5495 68.9834 66.5495C68.3611 66.5301 65.3465 65.0764 63.8299 64.0744C60.9124 62.1102 57.7229 58.4957 57.859 57.2778C57.8979 56.9831 58.3841 56.1974 58.9481 55.5098C59.5121 54.8223 60.3678 53.6437 60.8735 52.8775L61.7681 51.4828L62.5267 53.1722C64.0241 56.4724 66.98 58.8297 70.5977 59.5958C76.2961 60.8137 82.0725 57.0813 83.5501 51.2078C83.8031 50.2256 83.842 49.4987 83.7449 47.7897C83.5699 44.8235 83.5309 44.5289 83.2978 44.3913C83.1808 44.3128 82.8697 43.802 82.5976 43.252C81.8387 41.7394 80.6523 40.3447 79.291 39.3624C77.5016 38.0659 76.1792 37.5749 73.5734 37.182C72.7372 37.0445 72.7372 37.0641 72.7372 37.6534C72.7372 38.2035 72.7953 38.2428 73.6705 38.3606C76.024 38.6946 77.7744 39.5 79.4079 41.0125C80.3412 41.8769 81.6834 43.6448 81.6834 44.0181C81.6834 44.0967 81.4496 44.1556 81.1775 44.1556C80.8472 44.1556 80.4971 43.9395 80.1662 43.5073C79.1747 42.2894 77.8325 41.0911 76.8794 40.5804C75.7518 39.9518 73.8066 39.441 72.5232 39.441C71.6869 39.441 71.5508 39.3624 70.5785 38.3017C69.3335 36.9856 68.4583 35.8462 68.4583 35.5712C68.4583 35.3158 69.9557 34.6479 71.4339 34.2747L72.5423 33.98L73.2233 34.7854C74.0014 35.6891 75.596 37.0838 75.8681 37.0838C75.9652 37.0838 76.1013 36.9463 76.16 36.7891C76.238 36.6123 75.81 36.0623 74.9929 35.2962C74.2736 34.6283 73.7484 34.039 73.8066 33.98C74.0398 33.7443 76.8404 33.98 78.2605 34.3729C79.505 34.7068 79.8161 34.7265 79.933 34.5104C80.0691 34.2943 80.2441 34.314 80.8472 34.6086C85.3784 36.8088 90.4157 36.0623 93.8194 32.6835C98.3506 28.1654 98.3698 21.0739 93.8577 16.5362C91.8741 14.5521 89.2293 13.3145 86.8759 13.3145C85.9617 13.3145 85.9425 13.3342 86.0007 13.8449C86.0396 14.2967 86.1565 14.3949 86.6427 14.4342C91.991 14.8861 96.0751 19.306 96.0751 24.6687C96.0751 27.2814 95.044 29.678 93.0604 31.7013C90.9989 33.8032 88.8211 34.7265 85.9036 34.7265C84.348 34.7265 82.0527 34.1175 81.0024 33.43C80.5552 33.1353 80.5552 33.096 80.8274 32.4281C81.0024 32.0549 81.0995 31.7209 81.0612 31.6817C80.9443 31.5638 78.4937 30.7977 78.2407 30.7977C77.9105 30.7977 77.0934 29.5208 76.6264 28.2636L76.238 27.2618H76.7823C77.0742 27.2618 77.8517 27.3796 78.5129 27.5171C79.6411 27.7725 79.8161 27.8707 80.8861 29.069C81.7026 29.9727 82.3836 30.4834 83.1808 30.8566C84.5812 31.4852 86.0205 31.6424 86.1176 31.1709C86.1565 30.9156 85.9617 30.8173 85.2226 30.7191C83.278 30.4637 81.4886 29.1476 80.4773 27.2225C79.8161 25.9652 79.8359 23.2347 80.4971 21.8793C82.3638 18.0291 87.4208 17.1451 90.3767 20.131C91.31 21.0739 92.0102 22.4687 92.1463 23.6473C92.2242 24.3545 92.3021 24.5116 92.6133 24.5116C92.9633 24.5116 93.0023 24.433 92.8662 23.5687C92.5551 21.3489 90.9797 19.2274 88.9182 18.2648C87.9651 17.813 87.5569 17.7344 86.0594 17.7344C84.5422 17.7541 84.1532 17.813 83.2 18.3041C80.186 19.7578 78.4937 23.3723 79.4079 26.3189C79.5631 26.8493 79.6411 27.2618 79.5829 27.2618C79.505 27.2421 78.7077 27.1439 77.7935 27.0064L76.1403 26.751L75.9652 25.6313C75.8291 24.6098 75.7518 24.5116 75.3238 24.5116C74.8568 24.5116 74.8377 24.5509 74.915 25.5724L74.9737 26.6332L73.7095 26.751C71.8032 26.9475 69.9365 27.2618 69.6254 27.4582C69.0805 27.7921 69.5666 27.8511 70.9088 27.576C71.6479 27.4189 72.8732 27.2618 73.6513 27.2028L75.0517 27.1243L75.2848 27.8314C75.4017 28.2243 75.7129 28.9511 75.946 29.4423L76.3932 30.3459L74.1177 30.4637C71.784 30.5816 69.2363 31.1709 67.6802 31.9763C67.2528 32.1924 66.8247 32.3692 66.7276 32.3692C66.6299 32.3692 66.4938 31.9567 66.4165 31.4263C66.1054 28.8726 65.8524 27.3796 65.4244 25.5528C65.0162 23.8044 64.9772 23.3919 65.1523 22.174C65.5413 19.3845 66.2804 17.0272 67.3888 14.9843C67.9919 13.8646 68.0111 13.7664 67.6999 13.5699C67.3109 13.3145 67.2138 13.4324 66.2217 15.4557C65.4826 16.9683 64.8603 18.8148 64.53 20.5435L64.2771 21.7811L63.5379 20.0524C62.6627 18.0291 61.243 15.5736 59.7455 13.511C58.2285 11.4483 54.4944 7.77495 52.3162 6.18377C48.796 3.66933 43.8756 1.50849 39.383 0.545937C36.8158 -0.0237365 30.1839 -0.180894 27.5195 0.251278ZM69.8975 38.8321C70.6756 39.5982 70.7536 39.8339 70.2476 39.8339C69.5085 39.8339 67.3888 41.1108 66.3386 42.1715L65.2302 43.2913L65.6576 41.3662C65.9106 40.3054 66.1635 38.8714 66.2217 38.1642C66.3386 37.0445 66.4357 36.8088 66.9608 36.4158L67.5441 35.9444L68.3803 37.0641C68.8281 37.6731 69.5085 38.4785 69.8975 38.8321ZM72.1922 40.9929L72.9314 41.543L71.8422 41.6608C68.5554 41.9947 65.9304 45.0199 65.9304 48.438C65.9304 50.0684 66.1438 50.8345 66.9416 52.2096C67.9721 53.9383 69.7225 55.058 72.0172 55.4509C72.6401 55.5491 72.7372 55.5098 72.7372 55.1955C72.7372 54.9009 72.5621 54.783 71.9009 54.6848C69.9167 54.3705 67.9331 52.8382 67.0579 50.9328C66.7276 50.1863 66.6107 49.6166 66.6299 48.4773C66.6299 46.6111 67.155 45.3539 68.4193 44.0967C69.6835 42.8395 70.9286 42.309 72.6401 42.309C73.8264 42.309 74.1765 42.3876 75.3819 43.0163C77.4243 44.077 78.5327 45.5503 78.863 47.6326C78.9607 48.2022 79.0968 48.4773 79.291 48.4773C79.7382 48.4773 79.5248 46.8468 78.9019 45.4521C78.4158 44.3913 78.4158 44.3324 78.7659 44.4306C78.9799 44.4896 79.3299 44.5878 79.5248 44.6467C80.4971 44.9413 81.0612 48.8505 80.4192 50.8542C79.4468 53.899 76.7433 56.217 73.8647 56.4724C72.8343 56.5706 72.7372 56.6295 72.7372 57.042C72.7372 57.6117 73.2623 57.651 74.7987 57.2385C78.2797 56.2956 81.0024 53.2901 81.4694 49.8131C81.6636 48.438 81.5084 46.67 81.1193 45.6485C80.9833 45.3342 80.9245 45.0592 80.9443 45.0396C80.9832 45.0003 81.2746 45.0396 81.6247 45.0788C82.1498 45.1574 82.2667 45.2753 82.4417 46.0218C82.7528 47.279 82.6947 50.0095 82.3446 51.2471C81.4113 54.4294 78.9799 57.042 75.946 58.1225C74.3317 58.7118 71.998 58.8297 70.4035 58.4171C68.3803 57.9064 67.1167 57.1795 65.6186 55.667C64.1212 54.1544 63.3629 52.8775 62.8959 51.031L62.6046 49.872L63.207 48.7327C63.5379 48.104 63.7519 47.7897 63.6938 48.0254C63.5961 48.4183 63.6548 48.4773 64.0631 48.4773C64.3352 48.4773 64.5684 48.4183 64.5684 48.3201C64.5882 47.6915 65.2104 45.4128 65.5413 44.7646C66.4165 42.9966 68.1471 41.5233 70.1307 40.8357C70.7536 40.6197 71.317 40.4429 71.3758 40.4429C71.4339 40.4429 71.8032 40.6786 72.1922 40.9929ZM76.3351 41.2876C77.0934 41.6608 78.0465 42.3483 78.4745 42.8002L79.252 43.6252L78.6688 43.4877C77.7935 43.2913 75.0517 41.9358 73.8845 41.1108L72.8343 40.384L73.9037 40.5018C74.5457 40.5607 75.518 40.8947 76.3351 41.2876ZM55.9336 41.5233C55.778 41.9358 55.6419 42.1912 55.6419 42.0733C55.6224 41.7787 56.0309 40.5804 56.1281 40.6786C56.167 40.7179 56.0892 41.0911 55.9336 41.5233ZM58.8898 60.8727C59.1426 61.2066 59.1231 61.2066 58.1118 60.853C57.5478 60.6566 56.5365 60.3815 55.8947 60.244L54.7083 60.0083L55.7974 58.9672L56.8866 57.9457L57.7617 59.2422C58.2479 59.9297 58.7536 60.6762 58.8898 60.8727ZM63.0128 92.1654C63.0128 92.3228 61.3403 93.2262 60.1928 93.6978C59.0453 94.1695 58.5397 94.2082 58.5397 93.8352C58.5397 93.5404 60.8541 92.539 61.9626 92.3228C62.4877 92.2048 62.9349 92.1261 62.9738 92.1067C62.9936 92.1067 63.0128 92.1261 63.0128 92.1654ZM58.0146 95.6619C57.6645 96.0155 57.5089 96.0548 57.1394 95.878C56.7115 95.6819 56.7115 95.6619 57.3728 95.4657C58.3841 95.1709 58.4619 95.1908 58.0146 95.6619ZM59.6288 96.2316C59.9789 96.6245 59.9789 96.6445 59.6094 96.9194C59.162 97.2536 59.1231 97.2536 58.6563 96.8994C58.2868 96.6245 58.2868 96.6052 58.6369 96.2122C59.0842 95.7212 59.162 95.7212 59.6288 96.2316ZM56.5754 96.5852C56.8088 96.7426 56.8088 96.8407 56.5171 97.273C56.2448 97.7246 56.1281 97.764 55.7586 97.5678C55.1751 97.2536 55.1751 97.273 55.4279 96.8213C55.6419 96.389 56.1086 96.2909 56.5754 96.5852ZM58.3452 98.1763C58.034 98.766 57.7423 98.8447 57.3533 98.4318C57.0227 98.0982 57.0032 98.0389 57.295 97.6266C57.5672 97.2143 57.6062 97.2143 58.0535 97.5085C58.4425 97.764 58.5008 97.9014 58.3452 98.1763ZM61.1652 97.8034C62.6046 99.5319 63.285 101.83 63.1687 104.581C63.1297 105.681 63.032 106.663 62.9547 106.742C62.8767 106.82 62.6046 106.78 62.3127 106.663C61.9434 106.486 61.8459 106.329 61.9434 106.034C62.0207 105.798 62.0795 104.914 62.0795 104.07C62.0795 102.125 61.5542 100.416 60.4651 98.8641C59.7455 97.8034 59.7066 97.7246 60.0372 97.4691C60.5234 97.0962 60.5818 97.1156 61.1652 97.8034ZM55.7197 98.4912C55.7002 98.5892 55.5446 99.1783 55.3502 99.8268C54.8056 101.595 54.9806 104.345 55.7197 105.995L56.2642 107.233L55.8752 107.645L55.4668 108.038L55.1556 107.547C53.7554 105.405 53.4831 101.241 54.5528 98.6286C54.7861 98.0782 54.8834 97.9995 55.2724 98.1569C55.5252 98.2357 55.7197 98.3925 55.7197 98.4912ZM59.8816 99.4138C60.7568 100.711 61.2625 102.439 61.2625 104.148C61.2625 104.954 61.1847 105.661 61.0874 105.74C60.9902 105.798 60.679 105.543 60.4067 105.189C60.0178 104.679 59.9205 104.384 60.0178 103.912C60.1928 103.068 59.7844 101.516 59.0842 100.416C58.598 99.63 58.5397 99.4138 58.7147 99.0215C59.0064 98.3731 59.2204 98.4518 59.8816 99.4138ZM57.1978 99.2764C57.4894 99.5519 57.4894 99.6693 57.2561 100.475C56.8671 101.771 56.8866 102.537 57.3144 102.459C57.5089 102.42 57.684 102.262 57.7034 102.106C57.8395 100.946 57.9951 100.337 58.1313 100.337C58.423 100.337 58.987 101.85 59.0259 102.793C59.0648 103.874 59.6677 105.209 60.4262 105.995C60.893 106.466 60.9124 106.545 60.679 107.193C60.3289 108.156 59.6677 109.177 59.376 109.177C59.2398 109.177 58.6952 108.726 58.1702 108.195L57.1783 107.193L57.5673 106.427C57.7812 106.014 57.9951 105.307 58.0729 104.875C58.1702 104.207 58.1507 104.07 57.8784 104.07C57.684 104.07 57.5673 104.247 57.5673 104.561C57.5673 105.249 57.0421 106.486 56.7893 106.329C56.4393 106.113 55.8169 103.637 55.8169 102.439C55.8169 101.123 56.342 98.9622 56.6532 98.9622C56.7699 98.9622 57.0032 99.0996 57.1978 99.2764ZM52.744 101.673C52.6468 104.128 52.8802 105.465 53.6776 107.193C54.0082 107.88 54.261 108.47 54.261 108.51C54.261 108.549 53.7554 108.588 53.1525 108.588C50.0213 108.568 47.9597 105.7 48.8544 102.616C49.1461 101.634 50.5853 100.122 51.5382 99.8068C52.8802 99.3751 52.8413 99.3158 52.744 101.673ZM62.3318 107.213L62.8378 107.409L62.1184 108.784C61.3791 110.218 61.2819 110.297 60.679 109.963C60.3289 109.766 60.3484 109.688 61.0291 108.391C61.418 107.645 61.7681 107.016 61.7876 107.016C61.807 107.016 62.0405 107.095 62.3318 107.213ZM57.684 108.902L58.7731 110.003L58.3841 110.415L57.9757 110.808L56.8477 109.708C55.7391 108.627 55.7391 108.608 56.0892 108.215C56.3031 107.979 56.4976 107.802 56.5365 107.802C56.5754 107.802 57.1005 108.293 57.684 108.902ZM60.3678 111.358C59.9983 111.79 59.6677 111.829 59.0842 111.515C58.6952 111.299 58.6952 111.299 59.1231 110.847C59.551 110.395 59.5899 110.395 60.1345 110.67C60.6984 110.965 60.6984 110.985 60.3678 111.358Z" fill="white"/>
<path d="M70.3837 44.1134C66.8637 45.9796 66.8439 50.8513 70.3645 52.8549C72.3481 53.9747 74.7597 53.5425 76.2961 51.8138C77.1515 50.8709 77.5993 49.928 77.5993 49.0637C77.5993 48.1797 77.2882 48.3565 77.0353 49.3976C76.3932 52.0103 73.9427 53.5032 71.434 52.7764C70.2476 52.4424 68.7694 51.0281 68.4781 49.928C67.7191 47.1386 69.2555 44.5653 72.0172 44.0545C72.4063 43.9759 72.7372 43.8384 72.7372 43.7401C72.7372 43.3669 71.3758 43.583 70.3837 44.1134Z" fill="white"/>
<path d="M128.69 0.248389C113.248 2.78247 101.793 15.0207 100.159 30.7358C100.042 31.7966 99.965 33.5646 99.9841 34.6843C100.023 36.5308 100.003 36.7469 99.6149 37.1398L99.1869 37.5523L99.751 38.1613C100.159 38.6131 100.373 39.1238 100.587 40.2828L100.879 41.8151L100.315 41.6972C99.284 41.4615 97.5336 41.2454 97.3975 41.3436C97.3004 41.3829 97.2416 41.6383 97.2416 41.8937C97.2416 42.2865 97.3585 42.3847 97.9808 42.4829C100.781 42.9151 101.229 43.1116 101.521 44.1134C101.676 44.7027 101.657 44.7617 101.365 44.6438C98.9339 43.6027 97.5534 43.4062 95.5692 43.8384C93.9165 44.1723 92.8075 44.7027 91.5822 45.7438L90.6878 46.4903L90.4348 44.9778C90.3186 44.1527 89.9097 42.6597 89.5207 41.6972C89.1514 40.715 88.8403 39.8114 88.8205 39.6542C88.8013 39.497 89.1706 39.2613 89.7545 39.0453C93.0604 37.9059 95.9192 35.6076 97.7284 32.6806C98.6809 31.1091 99.5172 29.0857 99.284 28.8697C99.206 28.7911 99.0898 28.8697 99.031 29.0268C98.9729 29.1839 98.5059 30.1662 98.0005 31.2073C95.8029 35.6272 91.5438 38.6524 86.6427 39.281C84.6783 39.5363 84.095 39.8899 85.8065 39.7917L86.8369 39.7328L87.4789 41.1078C88.1983 42.6401 88.8793 45.1938 88.8793 46.4511C88.8793 47.2171 88.9182 47.2957 89.3654 47.2957C89.6376 47.2957 89.8516 47.335 89.8516 47.3743C89.8516 47.4136 89.5986 47.9636 89.2683 48.5922C88.6071 49.928 88.1983 51.6174 88.3733 52.4425C88.4512 52.8549 88.3343 53.3068 87.9651 54.0336L87.44 55.0551L87.2457 53.8176C87.0899 52.6978 87.0317 52.5996 86.5839 52.5996C86.1176 52.5996 86.0978 52.6192 86.2339 53.9158C86.2926 54.6622 86.3897 55.5266 86.4677 55.8408C86.5648 56.3712 86.4479 56.5874 85.6704 57.4516C84.3282 58.9839 83.1227 59.7893 81.9747 59.9465C80.3802 60.1625 79.1549 60.4768 79.1549 60.6929C79.1549 60.8108 79.3491 60.8501 79.6021 60.7911C79.8359 60.7126 80.4192 60.6143 80.9053 60.5554L81.7805 60.4375L81.0995 60.8304C80.0691 61.4394 78.0657 62.0287 76.3543 62.2252C75.518 62.3234 74.7789 62.4609 74.7208 62.5197C74.4288 62.8145 75.0319 62.8539 76.6264 62.6377C78.5716 62.3823 80.6523 61.7144 82.2475 60.8108C83.278 60.2018 83.2977 60.2018 85.3593 60.3393C88.043 60.4965 89.1124 60.7715 90.5319 61.7144C93.6245 63.7572 96.4833 64.3863 99.6149 63.6985C102.979 62.9913 105.799 60.7322 107.394 57.5302L108.036 56.2337L109.806 58.041L111.575 59.8679H110.448C109.378 59.8679 106.422 60.3393 106.227 60.5554C105.974 60.8108 106.422 60.8108 107.841 60.5554C108.697 60.3982 110 60.2804 110.739 60.2607C112.042 60.2607 112.081 60.2804 113.462 61.3019C121.105 67.0969 130.616 69.3558 140.048 67.6272C141.059 67.4311 141.896 67.2543 141.935 67.2343C141.993 67.1756 141.273 63.9933 141.156 63.8946C141.117 63.8559 140.087 63.9933 138.862 64.2095C135.905 64.7399 130.402 64.6412 127.64 64.0127C121.65 62.6771 116.068 59.5143 111.964 55.1533C109.786 52.8549 108.425 50.8906 108.036 49.4959C107.627 48.1404 107.141 47.1386 106.169 45.7242C104.963 43.9759 104.049 40.6954 103.66 36.7469C103.446 34.5861 103.446 34.5468 103.932 33.5646C104.496 32.4842 105.41 29.8126 105.41 29.3215C105.41 29.1447 105.177 28.9679 104.807 28.8893C104.476 28.8304 104.165 28.6536 104.107 28.5161C103.815 27.7303 105.41 22.8979 106.986 19.7942C111.245 11.4454 118.927 5.65048 128.262 3.74502C130.732 3.25392 137.072 3.25392 139.503 3.74502C150.511 5.98443 159.224 13.6849 162.705 24.2337C163.094 25.4124 163.444 26.4142 163.464 26.4535C163.502 26.4731 164.202 26.3552 165 26.1588C166.148 25.8838 166.478 25.7267 166.478 25.4713C166.478 24.7444 165.253 21.3657 164.144 19.1066C159.516 9.50074 151.036 2.8414 140.475 0.523408C137.967 -0.0266246 131.296 -0.183777 128.69 0.248389ZM99.7899 44.9385C101.637 45.5867 102.143 45.9992 102.746 47.4725C103.018 48.1797 103.757 49.653 104.36 50.7335L105.449 52.6978L105.255 53.9354C104.671 57.6088 101.988 60.1232 97.9808 60.7519C97.4167 60.8501 97.2416 60.968 97.2416 61.243C97.2416 61.7733 98.1558 61.7733 99.8283 61.243C101.579 60.6929 103.329 59.4554 104.36 58.0606C105.177 56.9213 105.994 55.0944 105.994 54.3675C105.994 53.8568 106.286 53.8765 106.655 54.4068C107.122 55.0551 107.044 55.5462 106.247 57.1374C104.165 61.3805 99.284 63.6791 94.8498 62.5197C93.7414 62.2252 91.524 61.2037 91.3298 60.8894C91.2909 60.8108 91.6409 60.1625 92.1073 59.4554L92.9825 58.1785L94.2857 58.8071C95.0051 59.1607 95.9582 59.5143 96.4252 59.5732C97.1445 59.6911 97.2416 59.6518 97.2416 59.3375C97.2416 59.0428 97.0084 58.9249 96.153 58.7285C95.55 58.6106 94.6748 58.2767 94.2078 58.0017C93.3524 57.4909 93.3524 57.4909 93.6437 56.9213L93.9356 56.3516L94.6166 56.8034C97.3196 58.6499 101.073 57.2552 102.026 54.0336C102.377 52.8746 102.377 52.5996 102.007 52.5996C101.812 52.5996 101.715 52.796 101.715 53.13C101.696 53.9943 101.073 55.1926 100.198 55.9783C98.817 57.2356 97.0084 57.4713 95.2778 56.5677C94.6556 56.2534 94.2468 55.9194 94.2666 55.7426C94.2857 55.5855 94.5189 54.7997 94.7917 54.014C95.55 51.8138 95.55 51.8138 94.0136 51.7353C93.7804 51.7156 93.5856 52.0496 93.3716 52.796C93.0604 53.8176 93.0413 53.8568 92.8854 53.3068C92.8075 53.0121 92.8464 52.2657 92.9825 51.6567C93.1575 50.7531 93.3716 50.3995 94.2078 49.5548C95.0057 48.7494 95.4331 48.4743 96.2303 48.2976C97.2416 48.0422 97.5917 47.6886 96.8334 47.6886C95.3551 47.6886 93.5076 48.9851 92.7883 50.537C92.3411 51.4995 92.2242 53.3657 92.5743 54.2693C92.7302 54.6622 92.6912 54.9372 92.4574 55.4087L92.1271 56.0176L91.7189 55.2319C91.388 54.6033 91.31 54.1318 91.31 52.5996C91.31 50.9102 91.3688 50.6352 91.8741 49.6923C93.8967 46.0189 98.8368 45.3117 101.676 48.2779C102.629 49.2602 103.232 50.4388 103.388 51.6763C103.485 52.4032 103.602 52.5996 103.874 52.5996C104.088 52.5996 104.243 52.4621 104.243 52.246C104.243 51.696 103.738 50.0066 103.388 49.2798C102.843 48.2583 101.404 46.9225 100.198 46.3528C99.2648 45.9206 98.817 45.8224 97.3393 45.8224C95.7442 45.8224 95.472 45.8814 94.2857 46.4707C92.7883 47.2171 91.7572 48.2779 91.0379 49.8298C90.6099 50.7727 90.5319 51.1852 90.5319 52.6978C90.5319 54.289 90.6099 54.5836 91.1548 55.6837L91.7572 56.9016L90.9018 58.1785C90.4157 58.8857 89.9487 59.475 89.8516 59.475C89.4823 59.475 87.7121 56.4891 87.7121 55.8408C87.7121 55.6837 88.0622 54.839 88.4902 53.9747C88.9182 53.1103 89.2683 52.1871 89.2683 51.9317C89.2683 51.0674 90.0074 49.0048 90.707 48.0029C92.6522 45.1545 96.5421 43.8384 99.7899 44.9385ZM88.5483 59.75C89.0735 60.4179 89.0933 60.4965 88.7432 60.3786C87.9651 60.1232 86.0396 59.8679 84.9504 59.8679H83.8222L85.3203 58.4142L86.8369 56.9606L87.401 57.9821C87.7121 58.5321 88.2372 59.3178 88.5483 59.75Z" fill="white"/>
<path d="M81.0222 4.19681C80.2831 4.33432 79.6411 4.51111 79.5829 4.57004C79.291 4.84506 79.8551 4.8647 81.2944 4.58968C83.3169 4.19681 86.2147 4.19681 88.3931 4.57004C89.9487 4.84506 90.4738 4.84506 90.2016 4.57004C90.1435 4.51111 89.4235 4.33432 88.6071 4.17717C86.7398 3.82358 82.8499 3.82358 81.0222 4.19681Z" fill="white"/>
<path d="M82.5778 7.63451C79.2718 8.08629 75.6739 9.83459 73.2425 12.1919L71.862 13.5277L72.5424 14.117C72.9122 14.451 73.5147 14.942 73.8456 15.2171L74.4876 15.7082L75.6931 14.5885C77.2685 13.1544 79.077 12.074 80.9053 11.5044C82.9279 10.8758 86.798 10.8758 88.6461 11.4847L89.8906 11.8972L90.5518 10.4436C90.921 9.63818 91.213 8.93102 91.213 8.89172C91.213 8.71493 89.8906 8.24347 88.5484 7.92912C86.759 7.51663 84.2503 7.39874 82.5778 7.63451Z" fill="white"/>
<path d="M125.384 8.20411C118.247 10.64 112.859 15.4921 109.592 22.4264C107.647 26.4927 106.83 30.5787 107.025 35.1164C107.336 42.09 109.981 48.1993 114.843 53.0906C118.81 57.1177 123.711 59.6911 129.429 60.7714C131.743 61.2036 136.022 61.2233 138.414 60.7911C148.371 58.9838 156.481 51.8531 159.574 42.1686C160.468 39.3595 160.838 36.9433 160.838 33.8395C160.838 31.7377 160.43 27.7499 160.177 27.5142C160.138 27.4749 159.496 27.5928 158.718 27.7892C157.649 28.0445 157.357 28.1821 157.415 28.4178C158.077 30.6965 158.193 35.745 157.668 38.5148C155.373 50.203 145.396 58.4928 133.611 58.4928C126.979 58.4928 120.949 55.939 116.359 51.2048C111.809 46.5099 109.475 40.656 109.475 33.9181C109.475 27.2392 111.867 21.4442 116.573 16.7493C119.471 13.842 122.408 12.015 126.201 10.7578C127.115 10.4632 127.892 10.09 127.912 9.95246C127.99 9.53991 127.484 7.75232 127.29 7.67373C127.173 7.65412 126.318 7.88982 125.384 8.20411Z" fill="white"/>
<path d="M30.6507 13.1349C21.9962 14.0974 14.8781 20.2852 12.7193 28.7322C11.9803 31.6002 11.8635 35.254 12.4276 38.0434C14.2946 47.1779 21.5683 53.7783 30.9035 54.7997C34.7154 55.2319 38.4106 54.5247 42.1058 52.6978C45.6648 50.9495 48.3487 48.494 50.4491 45.076C51.3438 43.6223 52.5496 40.8918 52.783 39.7132C52.8997 39.1435 52.8802 39.0845 52.3551 38.9863C52.0439 38.9274 51.5577 38.8096 51.3049 38.7506C50.877 38.6328 50.7992 38.6917 50.702 39.222C50.4491 40.44 49.3017 42.8955 48.1932 44.5652C45.5482 48.5726 41.1528 51.5388 36.388 52.5014C34.1514 52.9728 29.8922 52.8157 27.8307 52.2264C21.3543 50.3209 16.5117 45.351 14.7419 38.8292C14.353 37.3952 14.2946 36.7469 14.3141 33.9378C14.3335 31.0109 14.3724 30.5197 14.8392 28.9679C16.8812 22.2104 21.685 17.594 28.5892 15.7475C29.9895 15.3743 34.307 15.2564 36.1935 15.5314L37.2826 15.7082L37.516 14.8242C37.6327 14.3331 37.7299 13.842 37.7299 13.7438C37.7299 13.2724 32.9845 12.8598 30.6507 13.1349Z" fill="white"/>
<path d="M132.346 13.0366C130.752 13.1741 128.748 13.5671 128.748 13.7438C128.748 13.842 128.845 14.3331 128.962 14.8242L129.196 15.7082L130.285 15.5314C132.288 15.2368 136.294 15.3546 137.889 15.7475C144.696 17.4958 149.578 22.1907 151.639 28.9679C152.106 30.5394 152.164 30.9912 152.164 33.9378C152.183 36.7273 152.125 37.4148 151.736 38.8292C149.967 45.3902 145.104 50.3209 138.551 52.246C137.208 52.6389 136.566 52.6978 133.708 52.6978C130.81 52.6978 130.207 52.6389 128.884 52.246C124.353 50.8906 120.541 48.0815 118.091 44.3099C117.118 42.7776 116.009 40.3614 115.776 39.222C115.679 38.6917 115.601 38.6328 115.173 38.7506C114.921 38.8096 114.435 38.9274 114.123 38.9863C113.598 39.0845 113.579 39.1435 113.695 39.7132C113.929 40.8918 115.134 43.6223 116.029 45.076C118.13 48.494 120.813 50.9495 124.372 52.6978C128.067 54.5247 131.763 55.2319 135.575 54.7997C144.929 53.7783 152.164 47.1975 154.051 38.0238C154.401 36.3147 154.44 35.5683 154.362 33.2503C154.207 29.5376 153.662 27.416 152.008 24.1551C148.722 17.7512 142.071 13.4492 134.777 13.0759C133.863 13.017 132.774 13.017 132.346 13.0366Z" fill="white"/>
<path d="M84.4253 15.6885C81.0803 16.2582 78.2018 19.0084 77.3074 22.4854C76.8794 24.0962 76.9183 24.5087 77.4626 24.5087C77.8517 24.5087 77.9296 24.3712 78.1238 23.2318C78.5716 20.5799 80.2441 18.3798 82.6557 17.2601C85.8064 15.7868 89.2485 16.3958 91.738 18.8512C94.8888 21.9746 94.8888 27.1214 91.7189 30.3037C90.5128 31.5216 89.0345 32.2681 87.2841 32.5824C86.1565 32.7592 85.9617 32.8574 85.9617 33.1913C85.9617 33.5842 86.0396 33.5842 87.187 33.4664C91.4071 33.0342 94.8888 29.0072 94.908 24.6069C94.908 20.2067 91.6601 16.3761 87.3231 15.6885C85.9036 15.4528 85.8838 15.4528 84.4253 15.6885Z" fill="white"/>
<path d="M97.6894 16.4743C97.3393 16.71 97.0474 16.9261 97.0474 16.9654C97.0474 17.0243 97.2614 17.4761 97.5144 17.9869C98.2145 19.3816 98.7978 21.4835 98.9339 23.0747L99.0508 24.5087H100.801L100.665 23.055C100.49 21.1496 99.926 19.1066 99.0897 17.4172C98.7007 16.6708 98.3896 16.0618 98.3506 16.0618C98.3308 16.0618 98.0197 16.2582 97.6894 16.4743Z" fill="white"/>
<path d="M28.978 19.4209C23.3186 20.9138 19.176 25.2944 17.9508 31.0501C17.6007 32.7788 17.698 36.2362 18.1647 37.9648C19.2344 41.874 22.1322 45.5277 25.6718 47.3743C27.0137 48.0815 28.9391 48.769 29.0947 48.6118C29.153 48.5725 29.2309 48.219 29.2892 47.8458C29.4059 47.1975 29.367 47.1582 28.803 47.0403C28.4529 46.9617 27.5583 46.5885 26.7998 46.2153C19.6233 42.5615 17.1339 33.7806 21.3348 26.7874C22.3072 25.1962 24.1548 23.3693 25.7885 22.3871C33.5484 17.7708 43.4865 21.9353 45.7231 30.7554C46.112 32.3269 46.2093 35.2343 45.9176 36.5504C45.7231 37.3558 45.7425 37.3755 46.6177 37.5523L47.2206 37.6898L47.454 36.5504C47.7457 35.136 47.5901 31.7377 47.1623 30.1072C46.4038 27.2588 44.3228 24.0569 42.0473 22.2496C40.5887 21.071 38.1965 19.8923 36.2906 19.4012C34.2291 18.8708 31.0006 18.8708 28.978 19.4209Z" fill="white"/>
<path d="M130.11 19.4012C125.87 20.5209 122.331 23.4282 120.405 27.357C119.394 29.4 119.024 30.8536 118.888 33.2503C118.81 34.92 119.024 37.3362 119.296 37.6112C119.335 37.6505 119.666 37.6112 120.016 37.513C120.444 37.3951 120.658 37.238 120.599 37.0611C120.56 36.904 120.483 35.8432 120.424 34.7039C120.327 32.1894 120.658 30.3429 121.63 28.3196C123.964 23.4282 128.495 20.5405 133.805 20.5209C139.775 20.5209 144.56 24.0372 146.563 29.9107C147.049 31.3055 147.108 31.7573 147.108 34.036C147.108 36.3344 147.049 36.7468 146.563 38.1612C145.299 41.8543 143.024 44.5062 139.678 46.2153C138.92 46.5885 138.025 46.9617 137.675 47.0403C137.111 47.1582 137.072 47.1975 137.189 47.8458C137.247 48.219 137.325 48.5725 137.383 48.6118C137.539 48.769 139.464 48.0815 140.806 47.3743C144.248 45.567 146.797 42.5025 148.119 38.5541C148.78 36.5308 148.974 33.1913 148.527 31.0501C147.302 25.2551 143.121 20.8745 137.422 19.4012C135.361 18.8708 132.152 18.8708 130.11 19.4012Z" fill="white"/>
<path d="M83.92 20.0691C82.0137 20.9531 80.9635 22.78 81.1385 24.9605C81.2554 26.3552 81.5665 27.0821 82.4807 28.0053C85.3395 30.9519 90.2988 29.3607 90.9408 25.3141C91.0379 24.6462 91.0187 24.5087 90.7459 24.5087C90.5319 24.5087 90.4348 24.6855 90.4348 25.0391C90.4157 25.7856 89.8318 27.0428 89.1514 27.7303C86.934 29.9697 82.986 29.125 81.8776 26.1784C81.5473 25.3141 81.5857 23.7426 81.9556 22.839C82.5388 21.4442 83.7839 20.462 85.4366 20.1084C85.7285 20.0298 85.9617 19.8923 85.9617 19.7941C85.9617 19.4602 84.9313 19.5781 83.92 20.0691Z" fill="white"/>
<path d="M33.0623 23.33C33.0623 23.8801 33.1206 23.9194 33.8013 23.9194C36.7964 23.939 40.4916 26.3945 41.9891 29.3804C43.6422 32.7002 43.4866 36.6094 41.5418 39.5363C39.558 42.5419 36.4463 44.2312 32.9456 44.2116C28.1224 44.1723 23.9021 40.4989 23.1241 35.6075C22.9102 34.2521 22.8519 34.1343 22.4435 34.1343C22.0156 34.1343 21.9767 34.2128 21.9767 34.9593C21.9767 37.2773 23.2408 39.9489 25.2635 42.0115C27.6945 44.467 30.2617 45.4492 33.743 45.292C38.7412 45.0367 42.7087 41.7365 43.9534 36.7665C44.9258 32.936 43.8172 28.8697 41.0555 26.0998C39.0912 24.1158 36.1351 22.7604 33.8013 22.7408C33.1011 22.7408 33.0623 22.78 33.0623 23.33Z" fill="white"/>
<path d="M133.416 23.3301C133.416 23.8801 133.474 23.9194 134.155 23.9194C137.267 23.9391 140.962 26.4731 142.46 29.6358C145.163 35.4111 142.168 42.0704 136.061 43.858C130.285 45.5474 124.158 41.3632 123.4 35.2343C123.264 34.2521 123.206 34.1343 122.797 34.1343C122.37 34.1343 122.331 34.2128 122.331 34.9789C122.331 39.281 126.162 43.8384 130.791 45.0367C136.469 46.4903 142.537 42.9544 144.229 37.1791C144.774 35.3522 144.715 32.4449 144.132 30.618C143.51 28.7322 142.051 26.5321 140.65 25.3534C138.842 23.8605 136.022 22.7408 134.097 22.7408C133.474 22.7408 133.416 22.78 133.416 23.3301Z" fill="white"/>
<path d="M30.6312 25.3731C28.3363 26.1391 26.2748 27.8089 25.244 29.734C24.6605 30.8144 24.116 32.7002 24.116 33.6038C24.116 34.0753 24.1938 34.1539 24.5439 34.095C24.9134 34.036 25.0106 33.8592 25.1467 32.9556C25.4968 30.4608 27.2861 27.9464 29.4449 26.866C34.4431 24.3908 40.0637 27.2392 41.075 32.7592C41.6585 35.9022 39.9275 39.556 37.127 41.0882C36.0573 41.6972 34.4626 42.1883 33.6068 42.1883C33.1595 42.1883 33.0623 42.2865 33.0623 42.6597C33.0623 43.0919 33.1206 43.1312 33.8985 43.033C35.3766 42.8562 36.6602 42.4044 37.8271 41.6383C43.8173 37.7291 43.2533 29.0268 36.8158 25.9231C35.4155 25.2552 35.1432 25.1962 33.354 25.157C32.1288 25.1177 31.1174 25.1962 30.6312 25.3731Z" fill="white"/>
<path d="M130.985 25.3731C127.815 26.4142 125.559 28.7714 124.742 31.8752C124.333 33.3681 124.392 34.1343 124.858 34.1343C125.306 34.1343 125.306 34.1343 125.617 32.4645C126.24 29.1054 128.904 26.5713 132.424 26.0213C135.983 25.4713 139.678 27.6714 141.04 31.1877C141.623 32.7199 141.623 35.3718 141.02 36.9237C139.951 39.7328 137.325 41.7758 134.35 42.1293C133.552 42.2276 133.416 42.3061 133.416 42.6794C133.416 43.0919 133.455 43.0919 134.68 42.9544C138.142 42.5222 141.137 39.7721 142.071 36.1576C143.121 32.0913 141.059 27.8089 137.169 25.9427C135.769 25.2552 135.497 25.1963 133.708 25.157C132.482 25.1177 131.471 25.1963 130.985 25.3731Z" fill="white"/>
<path d="M31.6036 27.3374C30.145 27.7107 29.1725 28.2804 28.1418 29.4001C26.7804 30.8734 26.3719 31.8948 26.3719 34.0361C26.3525 35.5487 26.4303 35.9612 26.8776 36.9237C27.8306 39.006 29.9699 40.6364 32.1482 40.9311C32.9844 41.0489 33.0622 41.0293 33.0622 40.6364C33.0622 40.3222 32.9456 40.2239 32.5177 40.2239C31.3119 40.2239 30.0672 39.5953 28.8614 38.3774C27.5 36.9827 27.0332 35.9023 27.0332 34.0361C27.0332 32.1699 27.5 31.0895 28.8808 29.6751C29.8532 28.6929 30.2811 28.3983 31.2146 28.1429C34.8904 27.0625 38.43 29.184 39.1884 32.9557C39.3246 33.6432 39.5191 34.0361 39.6942 34.0361C40.122 34.0361 40.122 33.4271 39.6942 31.9734C38.9746 29.6358 36.9714 27.8286 34.4625 27.2785C33.2178 27.0232 32.8677 27.0232 31.6036 27.3374Z" fill="white"/>
<path d="M132.229 27.2589C130.207 27.6125 128.223 29.1447 127.251 31.1484C126.784 32.1306 126.707 32.5038 126.707 34.0361C126.707 35.6469 126.765 35.9415 127.348 37.1202C128.359 39.1828 130.305 40.6364 132.502 40.9311C133.338 41.049 133.416 41.0293 133.416 40.6757C133.416 40.3418 133.26 40.2632 132.56 40.1846C130.732 39.9686 128.826 38.5345 127.931 36.7273C127.562 35.9611 127.484 35.4897 127.484 34.0361C127.484 31.9734 127.873 30.9323 129.157 29.6358C130.441 28.3393 131.471 27.9464 133.513 27.9464C134.953 27.9464 135.419 28.025 136.1 28.3982C137.967 29.4001 139.27 31.1681 139.601 33.152C139.698 33.7414 139.853 34.0361 140.028 34.0361C140.475 34.0361 140.3 32.4842 139.698 31.1484C138.842 29.2233 136.975 27.75 134.816 27.2785C133.688 27.0428 133.533 27.0428 132.229 27.2589Z" fill="white"/>
<path d="M31.4092 29.3411C27.111 30.8733 27.1694 37.2577 31.4869 38.7506C34.3653 39.7328 37.4576 37.8862 38.0216 34.8611C38.1383 34.2914 38.0994 34.1343 37.866 34.1343C37.691 34.1343 37.5354 34.4093 37.4576 34.9004C37.2825 36.0005 36.2324 37.4738 35.221 38.0041C34.1903 38.5542 32.4593 38.6131 31.3508 38.1416C29.4449 37.3363 28.3557 35.2147 28.803 33.1914C29.192 31.3645 30.6507 29.8912 32.2649 29.6751C32.7511 29.5965 33.0623 29.459 33.0623 29.3018C33.0623 28.9482 32.4204 28.9679 31.4092 29.3411Z" fill="white"/>
<path d="M131.763 29.3411C129.079 30.3037 127.776 33.5253 129.02 36.1969C130.11 38.5738 132.949 39.6738 135.322 38.6524C136.644 38.0827 137.773 36.8255 138.162 35.4897C138.531 34.2325 138.551 34.1342 138.201 34.1342C138.045 34.1342 137.889 34.4289 137.831 34.8415C137.5 36.8648 135.633 38.4559 133.552 38.4559C132.268 38.4559 131.218 38.0827 130.441 37.3166C128.126 35.0968 128.806 31.1483 131.704 29.9304C132.113 29.7536 132.657 29.6161 132.93 29.6161C133.241 29.6161 133.416 29.4982 133.416 29.3214C133.416 28.9482 132.813 28.9679 131.763 29.3411Z" fill="white"/>
<path d="M62.6436 56.5088C62.2545 56.7642 62.5848 57.2356 64.18 58.7482C65.5995 60.1036 65.8716 60.2608 66.0467 59.7893C66.1246 59.6125 65.5605 58.9053 64.5684 57.9232C63.6938 57.0392 62.9739 56.332 62.9547 56.332C62.9349 56.332 62.7988 56.4106 62.6436 56.5088Z" fill="white"/>
<path d="M107.355 63.7965C104.554 64.5631 101.657 66.2323 99.7899 68.197C99.3038 68.688 98.9537 69.1203 99.0118 69.179C99.0508 69.2183 99.6149 69.69 100.237 70.2397L101.404 71.2224L102.727 70.0042C105.177 67.6859 107.783 66.6845 111.245 66.6646C113.092 66.6646 114.299 66.8807 115.776 67.4504C115.971 67.5092 116.243 67.1162 116.671 66.1542C117.001 65.3877 117.235 64.6805 117.176 64.5824C117.118 64.4843 116.476 64.2095 115.757 63.9733C113.812 63.3449 109.378 63.2468 107.355 63.7965Z" fill="white"/>
<path d="M53.0163 64.9166C52.9579 64.9947 52.8996 65.2502 52.8996 65.4858C52.8996 65.8593 53.0357 65.9574 53.6387 66.0555C56.5753 66.5078 58.2673 67.293 59.9788 69.0022C64.0432 73.049 64.0049 79.3348 59.9205 83.4603C55.9724 87.4284 49.7684 87.3691 45.7815 83.3229C44.3034 81.8299 43.4477 80.1207 43.0198 77.8617C42.7281 76.3293 42.6698 76.1725 42.2613 76.1725C41.8724 76.1725 41.814 76.2706 41.814 76.9778C41.814 79.2567 43.1948 82.2815 45.1397 84.2462C50.4102 89.5893 59.2787 88.1943 62.9157 81.4563C64.063 79.3154 64.4521 76.1132 63.888 73.6381C62.9349 69.5919 59.3176 65.918 55.5835 65.2109C53.9303 64.8773 53.133 64.7986 53.0163 64.9166Z" fill="white"/>
<path d="M51.013 67.4311C47.7652 68.1382 45.1202 70.7701 44.245 74.1491C43.8171 75.7596 43.8561 76.1726 44.4007 76.1726C44.7896 76.1726 44.8674 76.0351 45.0619 74.8957C45.3536 73.2065 45.9565 71.9683 47.1234 70.7308C48.2708 69.4932 49.2822 68.8648 50.8381 68.4131C52.3161 67.9808 54.5138 68.0989 56.0697 68.708C57.3727 69.199 59.2203 70.8295 59.9788 72.1451C62.3126 76.1332 60.6595 81.555 56.4975 83.5191C55.9724 83.7746 55.1751 84.0494 54.7472 84.1282C52.9579 84.423 52.8996 84.4424 52.8996 84.8553C52.8996 85.2482 52.9773 85.2476 54.1248 85.1302C55.8168 84.9534 57.8978 83.932 59.2009 82.5958C63.5769 78.196 62.2928 70.7308 56.7309 68.1183C54.6888 67.1362 53.1524 66.9594 51.013 67.4311Z" fill="white"/>
<path d="M39.6747 68.7467C38.7995 70.181 38.0022 72.9903 37.8855 74.9937L37.8272 76.0745L38.6634 76.1332L39.4802 76.1919V75.2292C39.4802 73.933 40.1026 71.556 40.8222 70.1223L41.4056 68.9435L40.9778 68.6686C40.7444 68.5112 40.4332 68.315 40.3165 68.2363C40.161 68.1576 39.9275 68.3344 39.6747 68.7467Z" fill="white"/>
<path d="M81.2164 68.6093C78.3576 69.4151 75.343 71.8509 74.1375 74.4046C71.9591 78.9618 72.7372 83.9907 76.1402 87.4678C78.5327 89.9229 81.3723 91.043 84.6975 90.8462C87.5179 90.6894 90.0266 89.5893 91.9131 87.664L92.9052 86.6819L94.1497 89.4319L93.1384 90.3552C91.2129 92.1231 87.4981 93.6555 85.1453 93.6555C84.6393 93.6555 84.2113 93.7342 84.2113 93.8523C84.2113 94.2059 86.895 94.0091 88.3931 93.5181C88.6844 93.4393 88.6263 93.5768 88.1203 94.1665C85.6896 96.9358 86.1955 101.631 89.1316 103.89C89.5794 104.224 89.7934 104.46 89.6184 104.401C88.6455 104.067 85.6116 103.831 83.239 103.929C80.1854 104.047 77.2103 104.558 77.2103 104.971C77.2103 105.304 77.4045 105.304 78.863 104.931C79.5242 104.755 81.3915 104.578 83.1611 104.518C85.7087 104.42 86.6619 104.479 88.3152 104.774C89.4817 104.971 91.31 105.128 92.6714 105.148C94.8498 105.148 95.083 105.108 96.1141 104.597C97.7086 103.811 99.07 102.24 99.5759 100.59C100.062 98.9792 100.081 98.5076 99.6341 98.6056C99.3811 98.645 99.245 98.9398 99.1671 99.5683C98.8949 101.474 97.5917 103.143 95.7052 104.047C92.205 105.697 87.9453 103.399 87.3429 99.529C86.8177 96.2093 89.0933 92.9877 92.2824 92.536C92.9825 92.4373 93.1576 92.3392 93.1576 92.025C93.1576 91.7108 93.0604 91.6714 92.6324 91.7501C92.1073 91.8482 92.1073 91.8482 92.7685 91.2785C93.1384 90.9643 93.6827 90.532 93.9746 90.3158L94.4799 89.9229L95.3552 91.1411C97.1254 93.6555 100.139 96.1699 102.843 97.4274C103.563 97.761 104.165 98.0559 104.204 98.0753C104.224 98.0953 103.699 98.6843 103.038 99.3721C101.676 100.766 100.528 102.79 100.062 104.578C99.6922 106.051 99.6922 108.762 100.062 110.254C101.034 114.066 103.99 117.209 107.744 118.427C109.514 119.016 112.586 119.016 114.357 118.427C118.771 116.993 122.311 112.514 122.331 108.33C122.331 107.485 122.292 107.406 121.883 107.406C121.475 107.406 121.416 107.544 121.202 108.919C120.521 113.319 117.06 116.894 112.762 117.621C109.475 118.191 106.208 117.111 103.854 114.694C100.801 111.531 100.062 106.797 102.007 102.771C102.571 101.611 103.971 99.9419 105.06 99.156C105.722 98.665 105.858 98.6256 106.674 98.8218L107.549 99.0186L106.538 99.6077C105.002 100.492 103.738 101.906 102.921 103.615C102.318 104.911 102.202 105.363 102.143 106.876C102.026 109.037 102.435 110.687 103.465 112.278C104.846 114.439 107.063 115.971 109.475 116.443C110.934 116.718 111.05 116.698 111.05 116.167C111.05 115.755 110.953 115.696 109.884 115.578C109.164 115.499 108.23 115.185 107.394 114.773C103.29 112.691 101.715 107.701 103.854 103.478C105.294 100.649 109.086 98.7631 112.256 99.3328C115.834 99.9612 118.48 102.613 119.082 106.11C119.277 107.269 119.355 107.406 119.744 107.406C120.269 107.406 120.288 107.151 119.977 105.599C119.491 103.34 117.896 101.022 115.893 99.7257C114.376 98.7431 112.878 98.3701 110.409 98.3508C107.977 98.3114 106.908 98.174 107.316 97.8985C107.763 97.6236 109.553 97.1913 110.331 97.1913C110.992 97.1913 111.05 97.1519 111.05 96.6022C111.05 96.0518 111.011 96.0131 110.253 96.0131C109.203 96.0131 107.316 96.5235 106.15 97.1126L105.216 97.5842L103.854 97.0145C101.91 96.1699 99.9062 94.7949 98.2337 93.1838C96.9695 91.9463 95.1028 89.6087 95.1028 89.2551C95.1028 89.177 95.4529 88.666 95.8611 88.0963C96.9305 86.6626 98.2919 83.6371 97.8645 83.6371C97.7865 83.6371 97.4167 84.3049 97.0666 85.1102C96.3862 86.6819 94.9859 88.8034 94.7329 88.666C94.655 88.6073 94.3439 87.9782 94.0328 87.271L93.4885 85.9748L94.0915 84.6585C94.8109 83.1068 95.297 81.2995 95.297 80.2387C95.297 79.5316 95.258 79.4922 94.7719 79.5509C94.2468 79.6103 94.2276 79.669 94.0915 80.8872C94.0328 81.5943 93.8775 82.3996 93.7606 82.6944C93.6437 83.0087 93.4495 83.4797 93.3326 83.7746C93.0413 84.5404 92.8662 84.1281 92.5935 82.2028C92.2823 79.9245 92.3021 79.5116 92.7685 79.5116C93.2355 79.5116 93.2355 79.4135 92.8854 77.7043C92.6324 76.5849 92.6324 76.2313 92.8662 75.2492C93.2745 73.5007 93.8775 71.9096 94.6166 70.5346C95.258 69.3558 95.2778 69.2971 94.908 69.1003C94.5777 68.9235 94.4416 69.1003 93.6635 70.692C93.1576 71.6741 92.6324 72.9903 92.4574 73.5988C91.9712 75.3667 92.0102 75.3279 91.5822 74.6208C90.4546 72.7542 87.7121 71.0063 85.3587 70.672C81.5857 70.1223 77.6575 72.3219 76.0042 75.917C74.876 78.3334 75.0319 81.6724 76.374 84.0101C77.0742 85.2282 78.2216 86.4464 79.3689 87.1929C81.1973 88.3711 84.2113 89.0002 84.2113 88.175C84.2113 87.8801 83.9781 87.782 82.947 87.6052C80.6134 87.2123 78.6879 86.0141 77.4045 84.1281C75.8681 81.8692 75.6151 78.6083 76.7823 76.1725C77.4435 74.7582 78.7659 73.2845 80.0103 72.538C83.1808 70.6527 87.615 71.3792 90.0458 74.1491C91.4461 75.7596 91.602 76.2313 91.602 78.9619C91.6212 81.0833 91.7962 82.5957 92.2824 84.9534C92.4184 85.5425 92.3411 85.6799 91.2711 86.7213C89.3067 88.6854 86.8369 89.7267 84.2113 89.7267C81.3915 89.7267 78.9607 88.7247 77.0155 86.7407C73.0674 82.7138 73.1064 76.3887 77.1126 72.3419C78.8048 70.6327 81.2356 69.5132 83.2971 69.4932C83.9589 69.4932 84.0171 69.4539 84.0171 68.9041C84.0171 68.3344 83.9973 68.315 83.1029 68.3344C82.5778 68.3344 81.7416 68.4718 81.2164 68.6093Z" fill="white"/>
<path d="M108.327 68.6293C104.302 69.69 101.112 73.1277 100.237 77.3507C99.7312 79.8064 100.004 81.8299 101.326 85.1302C101.56 85.6605 101.521 85.8567 101.034 86.9374C100.723 87.664 100.392 88.1356 100.256 88.0769C100.14 88.0375 99.9062 88.0769 99.751 88.175C99.5172 88.3124 99.5172 88.4105 99.7312 88.7641C99.965 89.1376 99.887 89.3144 98.9147 90.6107L97.8447 92.045L98.3896 92.5554C98.6809 92.8302 98.9729 93.0664 99.031 93.0664C99.1089 93.0664 99.6149 92.4573 100.179 91.6914L101.19 90.3158L101.851 90.9055C102.571 91.5534 102.843 91.6321 102.999 91.2198C103.057 91.0623 102.804 90.65 102.357 90.2571L101.618 89.5693L102.746 87.2123L103.874 88.155C105.449 89.4319 106.675 90.0609 108.444 90.5126C112.392 91.534 116.204 90.4533 119.141 87.4678C121.105 85.4638 122.331 82.7925 122.331 80.4349C122.331 79.6103 122.292 79.5116 121.883 79.5116C121.494 79.5116 121.416 79.6496 121.202 81.0246C120.56 85.1302 117.41 88.6266 113.579 89.5106C112.45 89.7661 110.039 89.7661 108.911 89.5106C107.413 89.177 105.624 88.175 104.399 86.9961L103.213 85.8767L103.446 85.1495L103.699 84.403L104.243 85.1695C105.41 86.8194 108.036 88.3124 110.078 88.4892C111.148 88.5873 111.245 88.5679 111.245 88.2143C111.245 87.9001 111.031 87.782 109.942 87.5852C106.364 86.9174 103.815 84.3637 103.213 80.8278C102.629 77.3507 104.554 73.7756 107.822 72.2238C112.664 69.9255 118.538 73.2258 119.16 78.5689C119.258 79.4135 119.316 79.5116 119.763 79.5116C120.23 79.5116 120.249 79.4922 120.113 78.3727C119.685 74.6595 116.379 71.3005 112.548 70.672C106.033 69.6307 100.528 76.428 102.843 82.6157L103.232 83.6371L102.571 83.5784C101.949 83.539 101.871 83.4603 101.598 82.5564C99.8289 76.5261 103.932 70.181 110.078 69.5132C111.07 69.3951 111.148 69.3558 111.206 68.8454C111.264 68.3344 111.245 68.315 110.331 68.3344C109.825 68.3344 108.911 68.4718 108.327 68.6293Z" fill="white"/>
<path d="M51.1104 69.5526C49.1266 70.1223 47.3957 71.7528 46.54 73.8349C45.976 75.2293 46.0733 77.5475 46.7539 79.0406C47.7264 81.2014 50.0407 82.9493 52.1217 83.0874C52.783 83.1261 52.9968 83.0674 53.0552 82.8319C53.0941 82.5764 52.8996 82.4783 52.1606 82.3796C46.2288 81.5943 44.9064 73.3239 50.2935 70.6527C53.5609 69.0222 57.4505 70.554 58.7536 74.0117C58.948 74.5421 59.1231 75.2686 59.1231 75.5828C59.1231 76.0545 59.2009 76.1726 59.5315 76.1726C59.9205 76.1726 59.9399 76.0938 59.8232 75.2492C59.3954 72.0077 56.6726 69.5132 53.4247 69.3758C52.6273 69.3364 51.6161 69.4151 51.1104 69.5526Z" fill="white"/>
<path d="M50.8575 71.7328C48.5821 72.8135 47.5319 75.2886 48.2709 77.8224C48.6404 79.0599 50.2157 80.5723 51.5188 80.9653C52.8219 81.3582 53.1525 81.3582 54.3777 80.9853C56.1475 80.4549 57.5867 78.8044 57.8784 76.9778C57.9757 76.31 57.9563 76.1725 57.6839 76.1725C57.47 76.1725 57.3727 76.3493 57.3727 76.7029C57.3533 78.0192 56.0308 79.7871 54.6111 80.3762C52.5884 81.2408 49.9629 80.2387 49.0099 78.2347C48.4459 77.0759 48.4459 75.3279 48.9905 74.2472C49.5545 73.1471 50.7992 72.1257 51.9467 71.8509C52.4718 71.7134 52.8996 71.5366 52.8996 71.4379C52.8996 71.1043 51.83 71.2611 50.8575 71.7328Z" fill="white"/>
<path d="M96.3281 71.8702C95.978 72.1064 95.686 72.3219 95.686 72.3419C95.686 72.3812 95.8611 72.7148 96.0553 73.0684C96.6781 74.1491 97.4173 76.6242 97.5534 78.1172L97.6894 79.5116H99.1869V78.4708C99.1869 77.0565 98.5448 74.6208 97.7284 72.8722C97.3585 72.1064 97.0474 71.4579 97.0084 71.4579C96.9695 71.4579 96.6584 71.6541 96.3281 71.8702Z" fill="white"/>
<path d="M123.381 71.9096L122.778 72.3219L123.342 73.4613C124.042 74.8957 124.664 77.292 124.664 78.5689V79.5116H125.539C126.57 79.5116 126.57 79.5116 126.123 76.8597C125.812 75.1118 124.878 72.538 124.314 71.8702C123.983 71.4973 123.964 71.4973 123.381 71.9096Z" fill="white"/>
<path d="M82.2475 72.8916C79.641 73.6381 77.5603 75.9957 77.2684 78.5689C77.1713 79.4529 77.1905 79.5509 77.5214 79.4728C77.7935 79.4335 77.9104 79.178 78.0075 78.5102C78.2797 76.6048 79.5241 74.935 81.3333 74.0117C82.3248 73.5207 82.7528 73.422 83.9199 73.422C85.7675 73.422 86.9148 73.8543 88.1791 75.0131C89.6184 76.3293 90.1237 77.5669 90.1435 79.6103C90.1435 81.535 89.6957 82.6157 88.3931 83.932C87.3818 84.9534 86.2344 85.5425 84.9114 85.7192C84.1921 85.8173 84.0171 85.9354 84.0171 86.2302C84.0171 86.5838 84.1142 86.6232 84.9504 86.4858C88.7623 85.9354 91.524 82.1834 90.8436 78.4902C90.2598 75.2686 87.6731 72.931 84.4642 72.7148C83.6862 72.6755 82.7726 72.7542 82.2475 72.8916Z" fill="white"/>
<path d="M109.066 73.0097C106.791 73.7562 105.138 75.5047 104.535 77.8424C104.165 79.3348 104.165 79.5116 104.613 79.5116C104.885 79.5116 105.002 79.3154 105.08 78.6276C105.371 76.5848 107.2 74.3653 109.144 73.6975C110.642 73.2058 112.8 73.3826 114.143 74.1098C116.923 75.6422 118.091 79.2567 116.709 82.1641C116.398 82.8319 115.796 83.6959 115.29 84.1481C114.415 84.9727 112.606 85.798 111.731 85.798C111.381 85.798 111.245 85.8961 111.245 86.1909C111.245 86.6626 111.4 86.6626 112.898 86.289C116.651 85.307 118.869 81.3582 117.76 77.6262C117.118 75.426 115.465 73.7362 113.209 73.029C111.711 72.558 110.525 72.538 109.066 73.0097Z" fill="white"/>
<path d="M84.0171 74.7382C84.0171 74.8363 84.5224 75.0724 85.1453 75.2492C87.2451 75.8383 88.4902 77.4494 88.4902 79.5509C88.4902 82.8712 85.2034 84.9727 82.2085 83.5784C81.0222 83.028 80.0493 81.9086 79.8359 80.8278C79.6219 79.7477 79.5242 79.5116 79.3108 79.5116C79.0188 79.5116 79.2131 80.8478 79.6219 81.7118C80.6721 83.912 83.1221 85.0321 85.4564 84.3443C89.5794 83.1261 90.3377 77.4688 86.6619 75.2886C85.7867 74.7776 84.0171 74.4046 84.0171 74.7382Z" fill="white"/>
<path d="M111.245 74.7976C111.245 74.8957 111.478 75.0331 111.789 75.1118C114.162 75.6222 115.621 77.3507 115.601 79.6103C115.562 83.5584 110.992 85.5031 108.152 82.7925C107.413 82.0654 106.791 80.8278 106.772 80.042C106.772 79.7084 106.675 79.5116 106.48 79.5116C106.111 79.5116 106.111 79.7671 106.5 81.064C107.141 83.2442 109.572 84.8553 111.789 84.5404C112.898 84.3836 114.473 83.5191 115.057 82.7532C116.593 80.7104 116.398 77.6262 114.629 75.9364C113.618 74.9937 111.245 74.1885 111.245 74.7976Z" fill="white"/>
<path d="M33.8985 80.3175C33.5485 80.4155 33.2567 80.5336 33.2567 80.573C33.2567 80.8872 34.3653 83.9713 34.8126 84.914C35.435 86.1909 36.6213 88.0569 37.4965 89.0983L38.041 89.7661L38.6439 89.2551L39.2663 88.7247L38.3133 87.4678C36.9714 85.6799 36.0962 84.0101 35.4155 81.9673C35.1043 81.0046 34.7542 80.1994 34.6765 80.18C34.5987 80.16 34.2292 80.2187 33.8985 80.3175Z" fill="white"/>
<path d="M39.0912 80.5723C39.0912 81.1227 40.861 84.3636 41.7946 85.5231C43.6227 87.8014 46.7733 89.7267 49.7295 90.3945C51.3049 90.7481 52.8996 90.8068 52.8996 90.5126C52.8996 90.3945 52.5301 90.3158 52.0828 90.3158C49.6517 90.2964 45.9565 88.8034 43.8755 86.9768C42.1641 85.4837 41.3084 84.3243 40.297 82.2228C39.4413 80.4155 39.0912 79.9439 39.0912 80.5723Z" fill="white"/>
<path d="M128.962 84.7566C128.398 86.6626 127.212 89.0196 126.065 90.5713C125.5 91.2985 125.053 91.9857 125.053 92.0837C125.053 92.1824 125.286 92.4373 125.578 92.6535C126.045 93.0464 126.104 93.0464 126.434 92.7522C126.979 92.2605 128.631 89.7461 129.293 88.4498C129.604 87.8014 130.11 86.5245 130.382 85.6212C130.907 83.9514 130.868 83.6565 130.168 83.6371C130.052 83.6371 129.818 83.5784 129.643 83.5191C129.429 83.441 129.273 83.7158 128.962 84.7566Z" fill="white"/>
<path d="M124.489 84.3637C123.381 87.6052 120.521 90.7681 117.332 92.2999C115.835 93.027 113.423 93.6555 112.178 93.6555C111.614 93.6555 111.245 93.7342 111.245 93.8716C111.245 94.2646 114.104 93.9503 115.815 93.3806C119.899 92.0056 123.264 88.7447 124.839 84.6585C125.131 83.912 125.17 83.6371 124.995 83.6371C124.858 83.6371 124.625 83.9713 124.489 84.3637Z" fill="white"/>
<path d="M62.5848 86.1122C61.6513 87.0355 61.1263 87.7033 61.204 87.8801C61.3791 88.3518 61.6513 88.1943 63.2268 86.6426C64.4323 85.4837 64.7045 85.0908 64.5492 84.8747C64.4323 84.7372 64.2771 84.6192 64.1991 84.6192C64.141 84.6192 63.4019 85.287 62.5848 86.1122Z" fill="white"/>
<path d="M72.5423 88.2537C72.3481 88.4892 72.5621 88.784 73.7874 90.0216C75.2459 91.4553 75.732 91.7501 75.8879 91.2591C75.9652 91.0623 73.0872 87.9588 72.8343 87.9588C72.8151 87.9588 72.6784 88.0963 72.5423 88.2537Z" fill="white"/>
<path d="M92.0881 93.2432C87.9651 94.3233 86.5456 99.3328 89.5015 102.318C90.2796 103.085 91.991 103.929 92.6714 103.831C93.4495 103.733 93.3326 103.399 92.4772 103.262C91.3688 103.124 90.3377 102.554 89.6376 101.749C88.7822 100.786 88.471 99.9025 88.471 98.5269C88.4321 93.2825 95.4529 91.7895 97.6115 96.6022C97.8255 97.0932 98.0197 97.7217 98.0197 98.0165C98.0197 98.3701 98.1175 98.5663 98.3117 98.5663C99.0118 98.5663 98.3506 96.288 97.3004 95.0504C96.0943 93.6161 93.7414 92.7909 92.0881 93.2432Z" fill="white"/>
<path d="M91.5049 94.7162C90.3575 95.2466 89.0735 97.0539 89.0735 98.1733C89.0735 98.8805 89.4044 98.5863 89.6376 97.6823C89.8905 96.6609 90.8437 95.4821 91.7381 95.1092C93.0605 94.5394 95.0249 94.9324 95.9001 95.9344C96.8334 97.0145 97.1254 98.7237 96.5805 100.001C96.2112 100.904 95.0441 101.867 94.0328 102.122C93.1192 102.358 92.8464 102.692 93.6054 102.692C94.2468 102.672 95.511 102.043 96.1531 101.395C97.6697 99.8632 97.6307 96.9752 96.0362 95.4821C95.0057 94.5001 92.8075 94.1271 91.5049 94.7162Z" fill="white"/>
<path d="M93.2553 95.6395C93.1773 95.7376 93.2942 95.8163 93.4885 95.8163C94.1305 95.8163 95.1609 96.5235 95.5308 97.2113C96.5421 99.1166 95.2778 101.12 93.0802 101.12C91.9712 101.12 90.9018 100.275 90.707 99.2341C90.6488 98.8611 90.5127 98.5663 90.4156 98.5663C89.9295 98.5663 90.5907 100.099 91.388 100.786C93.7414 102.79 97.1643 100.177 95.9192 97.3287C95.7058 96.8377 95.3168 96.288 95.044 96.1112C94.3828 95.6789 93.3913 95.404 93.2553 95.6395Z" fill="white"/>
<path d="M108.386 100.924C106.286 101.768 104.418 104.185 104.127 106.463C104.01 107.308 104.029 107.406 104.379 107.406C104.71 107.406 104.788 107.23 104.885 106.404C105.041 105.049 105.916 103.556 107.141 102.554C110.234 99.9806 114.901 101.061 116.69 104.755C117.079 105.56 117.176 106.031 117.176 107.406C117.176 108.84 117.099 109.233 116.632 110.196C115.737 112.042 113.909 113.397 112.003 113.634C111.225 113.732 111.05 113.81 111.05 114.144C111.05 114.497 111.148 114.517 112.023 114.419C115.951 113.948 118.772 109.744 117.78 105.815C117.215 103.654 116.068 102.201 114.085 101.179C112.703 100.452 109.884 100.334 108.386 100.924Z" fill="white"/>
<path d="M111.05 102.534C111.05 102.692 111.478 102.888 112.042 103.025C115.426 103.851 116.69 108.074 114.298 110.549C112.567 112.357 109.611 112.396 107.861 110.628C107.18 109.94 106.597 108.683 106.577 107.937C106.577 107.603 106.48 107.406 106.286 107.406C105.566 107.406 106.422 109.94 107.491 110.982C108.677 112.121 109.397 112.415 111.05 112.415C112.703 112.415 113.637 112.022 114.668 110.903C115.523 110 115.932 109.115 116.048 107.897C116.321 105.285 114.473 102.908 111.789 102.417C111.245 102.318 111.05 102.358 111.05 102.534Z" fill="white"/>
<path d="M82.3638 108.723C77.2882 109.154 72.3283 111.453 68.6531 115.087C67.8942 115.814 67.2917 116.501 67.2917 116.6C67.2917 116.718 68.0111 117.405 68.9055 118.151L70.5006 119.526L71.862 118.25C73.5734 116.639 76.024 115.008 77.7156 114.36C81.4496 112.946 85.5535 112.808 89.2293 113.987C90.0458 114.243 90.746 114.439 90.7849 114.399C90.8047 114.36 91.2129 113.457 91.6799 112.396L92.5353 110.451L92.0881 110.215C91.174 109.705 88.2372 108.978 86.3316 108.781C84.4061 108.585 83.9589 108.585 82.3638 108.723Z" fill="white"/>
<path d="M60.3678 117.72C56.1669 125.322 55.9141 134.849 59.7065 142.883C60.679 144.907 62.4487 147.598 63.8682 149.189L64.9574 150.387L63.9072 151.822C61.5542 154.964 59.6482 159.58 59.0258 163.687C58.5785 166.555 58.6952 171.347 59.2787 173.901C59.7843 176.101 61.1068 179.912 61.5542 180.442C61.5931 180.502 66.2798 178.183 66.4549 178.046C66.4938 178.007 66.2217 177.26 65.8524 176.337C64.5882 173.175 64.2771 171.524 64.2771 168.008C64.2962 164.472 64.6271 162.704 65.8326 159.698C66.4938 158.068 67.875 155.632 68.7694 154.572L69.2363 154.002L71.7259 155.279L74.2148 156.575L72.8343 157.97C69.3532 161.506 67.6028 166.515 68.2442 171.269C68.7502 175.119 70.1307 178.027 72.7372 180.698C77.5604 185.648 84.6201 186.925 90.8047 183.998C95.9 181.602 99.4009 176.671 99.926 171.191L100.081 169.481H99.3619C98.5646 169.481 98.4088 169.697 98.4088 170.837C98.4088 172.074 97.6894 174.51 96.8142 176.219C96.192 177.457 95.5889 178.243 94.2276 179.598C92.244 181.621 90.4157 182.721 87.79 183.448C85.7285 184.038 82.6168 184.038 80.4773 183.468C75.7902 182.191 72.076 178.635 70.4808 173.901C69.8004 171.878 69.6254 168.577 70.0918 166.338C70.6948 163.392 72.8534 159.895 75.1488 158.107L76.2571 157.243L77.4435 157.538L78.6298 157.812L77.5214 158.461C76.1211 159.247 74.1956 161.172 73.2815 162.704C72.29 164.354 71.57 166.653 71.4339 168.577C71.0839 173.587 73.9427 178.635 78.3768 180.855C80.0301 181.661 82.1114 182.25 83.492 182.25C84.1532 182.25 84.2113 182.21 84.2113 181.7C84.2113 181.15 84.1921 181.13 82.3248 180.835C72.8534 179.264 69.2166 167.713 76.1211 161.093C77.7354 159.522 79.6219 158.481 81.0414 158.343C81.5473 158.304 82.1696 158.166 82.4027 158.049C83.0837 157.714 86.4479 157.989 87.8482 158.481C91.952 159.935 94.9667 163.745 95.4529 168.047C95.5889 169.383 95.5889 169.383 96.231 169.442L96.8532 169.501V168.558C96.8532 167.202 96.3862 165.494 95.511 163.687C93.7025 159.973 90.0266 157.321 85.8256 156.674C84.6974 156.516 83.842 156.516 82.1887 156.712C80.4383 156.909 79.8161 156.909 78.863 156.712L77.6964 156.458L78.6688 156.025C79.8551 155.495 82.1696 154.944 83.2198 154.944H84.0171V153.137L82.811 153.275C80.8274 153.471 78.5908 154.139 76.9183 154.964L75.3819 155.75L74.0985 155.22C73.3984 154.925 72.1922 154.336 71.4339 153.904C70.1115 153.157 70.0336 153.078 70.3256 152.764C70.5006 152.568 70.5977 152.332 70.5779 152.234C70.5396 152.136 69.7033 151.193 68.7304 150.171L66.9608 148.305L66.3386 148.914L65.7164 149.543L64.7434 148.462C62.6238 146.105 60.5234 142.471 59.5121 139.426C58.2479 135.635 57.82 130.625 58.423 126.834C58.8508 124.202 59.8621 121.137 61.0874 118.819C61.9626 117.111 62.0207 116.953 61.6903 116.718C61.5153 116.58 61.3013 116.443 61.2235 116.443C61.1458 116.443 60.7762 117.013 60.3678 117.72Z" fill="white"/>
<path d="M81.3135 120.096C79.3299 120.626 77.7935 121.55 76.238 123.121C73.9624 125.42 72.9314 127.895 72.9314 131.077C72.9314 134.24 73.9624 136.715 76.238 139.053C77.7935 140.644 79.3689 141.587 81.2362 142.019C82.2085 142.255 82.2475 142.294 82.3638 143.06C82.4225 143.492 82.5196 144.082 82.5778 144.376L82.6749 144.887L84.9504 144.789C87.7709 144.671 90.4738 145.064 93.1773 145.968L95.1219 146.616L95.511 145.732C96.2303 144.062 96.2303 144.042 94.9667 143.591C92.7883 142.785 89.1706 141.98 87.7319 141.98C87.5958 141.98 88.1983 141.606 89.0932 141.155C91.3298 140.035 93.0412 138.287 94.0915 136.047C94.869 134.437 95.297 132.884 95.297 131.765C95.297 131.254 95.219 131.176 94.7329 131.176C94.1886 131.176 94.1886 131.215 94.0717 132.393C93.7996 135.812 91.096 139.308 87.7709 140.624C86.4089 141.155 83.4338 141.351 81.8584 141.017C78.3966 140.271 75.3238 137.226 74.3898 133.631C73.0093 128.268 76.2961 122.65 81.5863 121.255C82.2277 121.098 83.0058 120.961 83.3559 120.961C83.9002 120.961 83.9781 120.882 84.056 120.372C84.134 119.782 84.134 119.782 83.2588 119.802C82.7726 119.802 81.8974 119.939 81.3135 120.096Z" fill="white"/>
<path d="M100.976 120.45C100.626 120.705 100.295 120.961 100.237 121.019C100.178 121.079 100.49 121.865 100.917 122.768C101.89 124.85 102.474 127.07 102.629 129.25L102.746 130.979H105.08L104.943 129.29C104.865 128.346 104.593 126.775 104.34 125.754C103.854 123.789 102.182 119.979 101.832 119.979C101.715 119.998 101.326 120.195 100.976 120.45Z" fill="white"/>
<path d="M81.4496 122.512C79.0968 123.298 77.1323 125.047 75.985 127.423C75.3819 128.661 75.3628 128.818 75.3628 131.097C75.3628 133.415 75.3819 133.474 76.0821 134.928C77.4435 137.697 80.2243 139.74 82.9668 139.976C84.134 140.055 84.2113 140.055 84.2113 139.642C84.2113 139.328 84.095 139.229 83.6862 139.229C81.8974 139.21 79.5829 138.071 78.1436 136.499C76.6072 134.829 76.16 133.611 76.16 131.077C76.16 128.563 76.6072 127.325 78.1245 125.675C79.9911 123.612 82.6947 122.65 85.3005 123.082C88.7821 123.671 91.4071 126.284 92.0102 129.761C92.205 130.861 92.2632 130.979 92.7104 130.979C93.1773 130.979 93.1773 130.94 93.0604 130.134C92.5743 126.952 90.5709 124.202 87.7703 122.866C86.6037 122.316 86.2147 122.238 84.5032 122.198C83.0058 122.159 82.3056 122.218 81.4496 122.512Z" fill="white"/>
<path d="M82.2667 124.418C79.5829 125.145 77.5406 127.483 77.2684 130.154C77.1515 131.195 77.1515 131.215 77.5604 130.999C77.8715 130.842 77.9878 130.586 77.9878 130.134C77.9878 128.563 79.6021 126.363 81.4113 125.459C82.2085 125.066 82.6557 124.987 84.1142 124.987C85.6314 124.987 86.0007 125.066 86.8567 125.518C88.0232 126.147 89.1514 127.345 89.7155 128.602C90.3575 130.016 90.3185 132.295 89.5986 133.768C88.7042 135.615 86.8759 136.971 84.9702 137.206C84.1921 137.305 84.0171 137.383 84.0171 137.717C84.0171 138.071 84.1142 138.09 84.9894 137.973C86.4095 137.776 87.5958 137.206 88.7042 136.145C92.7493 132.315 90.9989 125.656 85.5924 124.379C84.2311 124.045 83.6089 124.045 82.2667 124.418Z" fill="white"/>
<path d="M84.056 126.304C84.1142 126.441 84.523 126.618 84.9894 126.697C88.1401 127.247 89.5794 131.431 87.4981 133.984C85.8256 136.028 82.3836 136.008 80.7111 133.965C80.1662 133.277 79.9132 132.747 79.6609 131.509C79.4469 130.567 79.0968 130.881 79.2328 131.902C79.6609 135.065 83.1808 136.99 86.0594 135.615C88.6263 134.397 89.7545 131.549 88.6071 129.113C88.043 127.875 87.2847 127.109 86.0594 126.539C84.9894 126.029 83.9391 125.911 84.056 126.304Z" fill="white"/>
<path d="M102.765 136.794C101.501 140.251 99.9062 142.805 97.5923 145.044C94.2078 148.305 90.2598 150.112 85.5343 150.545C84.1142 150.662 83.745 150.82 84.2113 151.114C84.523 151.311 88.082 150.839 89.6376 150.407C94.908 148.914 99.3619 145.202 101.89 140.211C103.057 137.894 103.388 136.912 103.096 136.617C102.96 136.48 102.863 136.519 102.765 136.794Z" fill="white"/>
<path d="M109.027 136.696C108.969 136.852 108.775 137.501 108.6 138.149C108.425 138.797 108.113 139.72 107.9 140.192L107.55 141.037L106.889 140.526C106.519 140.251 106.13 140.015 106.033 140.015C105.936 140.015 105.527 140.506 105.118 141.095L104.379 142.196L104.807 142.49C105.041 142.667 105.469 143.001 105.741 143.237C106.227 143.669 106.227 143.689 105.916 144.298C105.741 144.651 105.021 145.673 104.34 146.596C103.64 147.519 103.077 148.285 103.077 148.325C103.077 148.364 103.427 148.678 103.874 149.032L104.652 149.68L105.138 149.228C105.391 148.992 106.15 147.991 106.83 147.048L108.036 145.3L109.086 146.439C110.662 148.128 112.295 150.427 113.54 152.706C114.143 153.825 114.746 154.729 114.843 154.748C115.271 154.748 117.079 153.766 117.079 153.511C117.079 153.02 114.571 148.796 113.209 147.008C112.47 146.026 111.284 144.671 110.603 143.983L109.358 142.726L109.942 141.234C110.467 139.878 111.245 137.363 111.245 137.049C111.245 136.971 110.992 136.872 110.681 136.813C110.37 136.754 109.903 136.636 109.611 136.558C109.28 136.48 109.086 136.519 109.027 136.696Z" fill="white"/>
<path d="M68.2442 142.942C67.836 143.276 67.836 143.276 68.7304 144.337C69.5475 145.319 72.1149 147.677 72.3481 147.677C72.4063 147.677 72.5621 147.5 72.6784 147.284C72.9122 146.95 72.7174 146.694 70.7919 144.749C68.7112 142.667 68.6333 142.628 68.2442 142.942Z" fill="white"/>
<path d="M58.8509 148.6C56.692 151.684 54.825 155.79 53.8915 159.542C53.0552 162.881 52.9969 163.195 53.4442 163.195C53.7359 163.195 53.8526 162.901 54.1249 161.427C54.864 157.577 57.0032 152.45 59.162 149.425C60.5623 147.461 60.5234 147.559 60.2122 147.303C59.9789 147.107 59.726 147.342 58.8509 148.6Z" fill="white"/>
<path d="M101.598 149.13C101.54 149.287 101.949 149.838 102.61 150.446C104.982 152.725 107.452 156.595 108.6 159.817C110.389 164.865 110.428 170.954 108.697 175.905C108.269 177.143 108.152 177.634 108.327 177.81C108.619 178.105 108.794 177.79 109.475 175.669C110.35 172.958 110.681 170.856 110.681 168.008C110.662 162.704 109.261 158.107 106.344 153.825C105.294 152.293 102.221 148.855 101.89 148.855C101.793 148.855 101.657 148.973 101.598 149.13Z" fill="white"/>
<path d="M82.3638 159.679C78.1245 160.327 74.3125 164.571 74.2927 168.656C74.2927 169.423 74.3317 169.501 74.7208 169.442C75.1098 169.383 75.1877 169.226 75.304 168.204C75.518 166.535 76.5881 164.394 77.8325 163.136C83.3559 157.558 92.7685 161.506 92.7685 169.383C92.7685 173.803 89.6957 177.418 85.2813 178.183C84.1532 178.38 84.0171 178.458 84.0171 178.851C84.0171 179.244 84.1142 179.304 84.7562 179.304C85.1453 179.304 85.9425 179.165 86.4868 179.028C93.8188 177.064 96.2891 167.89 90.96 162.508C88.6455 160.189 85.6116 159.188 82.3638 159.679Z" fill="white"/>
<path d="M84.0171 162.586C84.0171 162.92 84.134 162.999 84.6003 162.999C85.6116 162.999 87.362 163.804 88.3343 164.727C89.7346 166.044 90.3377 167.439 90.3377 169.383C90.3377 171.289 89.7544 172.742 88.5094 173.96C86.1565 176.259 82.3248 176.376 79.894 174.215C78.8246 173.253 78.0075 171.76 77.8517 170.463C77.7546 169.658 77.6766 169.481 77.3463 169.481C76.9963 169.481 76.9765 169.579 77.0934 170.405C77.2684 171.76 78.2407 173.626 79.2718 174.589C83.2 178.243 89.5794 176.376 90.921 171.151C91.0768 170.523 91.2129 169.717 91.2129 169.383C91.2129 168.283 90.6296 166.456 89.9487 165.415C88.8211 163.706 87.0899 162.645 84.8533 162.292C84.095 162.174 84.0171 162.194 84.0171 162.586Z" fill="white"/>
<path d="M114.065 183.88C111.187 189.145 106.227 194.017 100.956 196.747C95.7052 199.497 90.2796 200.715 84.5032 200.44C75.1098 200.027 66.4165 195.53 60.7373 188.182C60.0372 187.298 59.4148 186.571 59.3176 186.571C59.2398 186.571 58.9675 186.729 58.7341 186.925L58.3062 187.278L59.2398 188.536C61.3208 191.443 65.3465 195.077 68.5943 197.061C70.4029 198.142 73.1843 199.419 75.479 200.185C81.3333 202.169 88.1982 202.424 94.2276 200.892C101.307 199.065 108.191 194.488 112.586 188.673C113.832 187.043 115.718 183.959 115.718 183.586C115.718 183.507 115.465 183.311 115.173 183.154C114.629 182.879 114.629 182.879 114.065 183.88Z" fill="white"/>
<path d="M96.7555 189.341C96.017 189.754 94.5387 190.383 93.5076 190.736C91.6991 191.345 91.602 191.404 91.602 191.934C91.602 192.249 91.738 192.523 91.8939 192.583C92.2823 192.74 95.336 191.66 97.1254 190.756C99.031 189.793 99.031 189.793 98.642 189.106C98.4669 188.792 98.2727 188.555 98.2146 188.555C98.1558 188.575 97.5144 188.929 96.7555 189.341Z" fill="white"/>
<path d="M82.7528 210.832C74.0596 212.443 66.8439 217.884 63.0128 225.722C61.8846 228.001 61.632 228.806 62.0207 228.806C62.1185 228.806 62.3318 228.846 62.4685 228.904C62.6627 228.983 62.8768 228.669 63.1879 227.883C65.4634 222.226 70.1116 217.197 75.7129 214.348C82.8308 210.714 91.8741 210.754 99.0508 214.446C101.423 215.664 103.135 216.902 105.08 218.768C106.305 219.966 106.675 220.202 106.927 220.045C107.102 219.927 107.258 219.75 107.297 219.632C107.413 219.318 104.01 216.155 102.357 215.055C99.6149 213.229 96.5613 211.932 92.9825 211.087C90.7268 210.557 85.0092 210.419 82.7528 210.832Z" fill="white"/>
<path d="M80.1662 216.706C79.3689 216.863 77.9884 217.354 77.0544 217.806C74.8958 218.847 72.5423 221.145 71.57 223.168C71.1228 224.092 70.9867 224.563 71.1228 224.701C71.2589 224.838 71.5119 224.524 71.9009 223.659C73.1262 221.007 75.7128 218.709 78.6298 217.648C79.8161 217.216 80.361 217.137 82.2667 217.118C84.6591 217.118 85.8065 217.354 87.3818 218.139L88.3343 218.611L87.4789 219.161C84.7754 220.929 83.0448 224.386 83.3169 227.529C83.3751 228.276 83.492 229.16 83.5501 229.455L83.6862 230.004L82.7726 229.395C81.1973 228.315 79.894 227.942 77.6964 227.942C76.16 227.942 75.5378 228.04 74.7016 228.374L73.6513 228.786L73.7676 227.569C73.8647 226.311 73.6513 226.743 73.4175 228.256C73.3402 228.806 73.1454 229.081 72.6592 229.376C71.57 230.063 70.0144 231.89 69.4114 233.226C69.0805 233.933 68.7112 235.112 68.5943 235.859C68.0302 239.63 70.1697 243.775 73.5734 245.464C75.0319 246.191 75.1877 246.21 75.3238 245.7C75.4017 245.386 75.1877 245.228 74.1956 244.757C68.6141 242.105 67.7581 234.542 72.6011 230.614L73.4175 229.946L73.5344 230.417C73.6124 230.77 73.4373 231.065 72.6203 231.87C71.6869 232.833 70.5198 234.817 70.7146 235.131C70.9478 235.524 71.356 235.21 71.784 234.287C72.037 233.737 72.5813 232.931 72.9901 232.499L73.7676 231.694L74.3707 232.853L74.9929 234.012L74.4486 234.778C74.1375 235.191 73.9037 235.662 73.9037 235.799C73.9037 236.35 73.5344 236.231 73.1262 235.583C72.7761 235.014 72.6592 234.935 72.3673 235.131C71.8422 235.466 71.9782 238.117 72.6011 239.492C73.8647 242.282 77.2295 243.598 79.9911 242.38C81.2164 241.85 82.5586 240.416 82.9866 239.198C83.2588 238.432 83.414 238.236 83.7641 238.236C84.3672 238.236 84.348 238.707 83.628 240.16C82.9279 241.575 81.8387 242.616 80.3412 243.303C79.4271 243.735 78.9799 243.814 77.5604 243.814C76.3351 243.795 75.8291 243.873 75.771 244.05C75.6151 244.482 76.0431 244.6 77.6964 244.58C78.8246 244.58 79.5631 244.463 80.361 244.148C81.8387 243.579 83.4728 242.046 84.27 240.514C84.8533 239.394 84.8923 239.178 84.8923 237.253C84.8923 235.426 84.8341 235.073 84.3672 234.071C82.7726 230.633 78.8828 228.983 75.3238 230.24C74.1567 230.653 73.9037 230.672 73.8264 230.437C73.6315 229.946 73.6903 229.847 74.4486 229.533C75.7128 228.963 76.9963 228.748 78.3576 228.865C81.7026 229.14 84.523 231.399 85.5733 234.621C85.9425 235.721 86.0007 236.231 85.9227 237.764C85.8256 239.59 85.8256 239.61 86.2728 239.61C86.6427 239.61 86.7398 239.473 86.8567 238.707C86.9928 237.744 86.8567 235.308 86.6229 234.522L86.4868 234.051L87.148 234.562C87.8482 235.092 89.3846 235.859 89.7736 235.878C89.9097 235.878 90.0464 235.682 90.1045 235.426C90.3575 234.464 90.6686 234.267 91.738 234.424C92.5551 234.522 92.7104 234.601 92.633 234.876C92.5353 235.092 92.6522 235.073 93.0023 234.738C93.2553 234.503 93.6245 234.307 93.7996 234.307C94.6556 234.307 96.3472 233.422 97.4173 232.421C100.062 229.946 100.567 225.918 98.5838 222.933C97.1062 220.693 94.6556 219.456 92.0492 219.613C90.8826 219.691 90.5907 219.652 90.3377 219.377C90.0656 219.063 90.0656 219.023 90.3575 218.905C91.096 218.611 92.9442 218.552 94.0328 218.788C97.0864 219.416 99.498 221.617 100.373 224.524C100.723 225.663 100.781 226.213 100.684 227.627C100.587 229.219 100.606 229.356 100.956 229.455C101.151 229.513 101.384 229.455 101.462 229.337C101.715 228.924 101.754 226.134 101.54 225.015C100.451 219.809 94.5777 216.352 89.7347 218.081C89.0345 218.316 88.8984 218.297 88.1012 217.904C85.7093 216.686 82.6749 216.234 80.1662 216.706ZM89.8516 219.652C90.0266 219.888 89.9097 220.025 89.0735 220.458C88.5094 220.752 87.6731 221.361 87.226 221.852C86.3897 222.717 85.3203 224.622 85.4953 224.917C85.7477 225.31 86.1367 224.995 86.5648 224.052C87.44 222.166 89.9876 220.182 90.8437 220.713C91.135 220.889 91.2327 220.87 91.388 220.595C91.5438 220.34 91.816 220.261 92.7104 220.3C95.1999 220.359 97.3393 221.754 98.4477 224.052C99.0118 225.211 99.0898 225.545 99.07 226.96C99.07 228.355 98.9927 228.728 98.4477 229.847C98.0977 230.554 97.4556 231.458 97.0282 231.851C96.1722 232.637 94.3055 233.6 93.8577 233.482C93.3326 233.363 93.8967 232.578 94.7719 232.185C95.258 231.969 96.017 231.419 96.4641 230.967C98.4088 229.002 98.7007 226.036 97.1835 223.757C96.231 222.304 93.9356 220.949 93.9356 221.813C93.9356 221.97 94.1305 222.127 94.3828 222.186C95.1999 222.402 96.3862 223.483 96.9695 224.524C97.4364 225.388 97.5336 225.781 97.5336 226.94C97.5336 228.118 97.4365 228.472 96.9311 229.395C96.3862 230.377 94.8498 231.753 94.3055 231.753C94.0136 231.753 94.3636 230.692 94.7527 230.417C95.3168 230.004 95.8809 229.356 96.2112 228.748C96.5223 228.118 96.3472 227.706 95.9972 228.295C95.8809 228.511 95.4918 229.002 95.1609 229.376L94.5387 230.083L94.5195 229.493C94.5195 229.042 94.4608 228.963 94.3247 229.199C94.2276 229.356 94.1305 229.69 94.1305 229.926C94.1305 230.377 93.8577 230.515 92.8075 230.633C92.3411 230.672 92.3411 230.633 92.283 228.708C92.244 226.822 92.0492 226.036 91.135 223.875C90.9797 223.503 91.4851 223.306 92.7301 223.306C93.1773 223.306 93.5466 223.208 93.5466 223.11C93.5466 222.834 91.6409 222.893 90.921 223.168C89.5986 223.699 89.1712 224.092 88.8403 225.152C88.1983 227.097 88.5094 228.806 89.7155 229.946C90.0464 230.26 90.1627 230.535 90.0847 230.869C90.0464 231.144 89.9295 231.36 89.8516 231.36C89.5596 231.36 88.1012 229.612 87.8092 228.885C87.654 228.472 87.5179 227.588 87.5179 226.822C87.5179 225.801 87.4598 225.467 87.2457 225.467C87.0707 225.467 86.9346 225.781 86.8567 226.292C86.6037 228.02 87.7511 230.692 89.0735 231.497C89.7934 231.91 89.7934 232.047 89.1514 232.991L88.6461 233.737L89.4044 234.424L90.1435 235.092L89.3654 234.778C87.4789 234.012 85.8646 232.421 84.9504 230.437C84.134 228.669 83.9781 226.311 84.5812 224.524C85.2813 222.442 86.3507 221.047 88.082 219.927C89.0543 219.318 89.5015 219.24 89.8516 219.652ZM90.2598 227.785C90.3767 228.453 90.3959 229.101 90.2796 229.376L90.1045 229.847L89.5596 229.12C88.8984 228.237 88.6844 226.625 89.0933 225.624L89.3462 224.995L89.7155 225.82C89.9097 226.292 90.1627 227.176 90.2598 227.785ZM80.4383 231.046C82.3836 231.949 83.7641 233.698 84.2311 235.878C84.4061 236.722 84.4061 236.939 84.1921 237.076C83.667 237.41 83.5111 237.233 83.278 236.094C83.1419 235.426 82.7726 234.522 82.4027 233.973C81.7613 232.991 80.147 231.753 79.5248 231.753C78.8828 231.753 79.1159 232.087 80.2249 232.715C81.3723 233.383 82.3056 234.582 82.6557 235.878C83.0448 237.273 83.0058 237.312 81.4496 237.233C80.1272 237.155 80.0301 237.175 79.972 237.567C79.9132 237.921 80.0499 238.019 80.5942 238.117C81.2944 238.255 81.2944 238.255 81.0222 238.805C80.6523 239.512 79.4858 240.553 78.8438 240.711C78.5716 240.789 77.8907 240.789 77.3074 240.75C76.1211 240.651 75.0708 239.983 74.5847 239.001L74.2736 238.412L75.2267 239.119C76.3351 239.905 76.5293 239.944 76.8014 239.434C76.9765 239.119 76.8794 238.981 76.0821 238.451C75.5768 238.137 74.915 237.587 74.6038 237.273L74.0398 236.683L74.3707 235.799C74.9348 234.326 75.1098 234.307 76.3543 235.485C76.9381 236.055 77.4633 236.468 77.5214 236.408C77.5795 236.35 77.1905 235.898 76.6462 235.387C76.1019 234.876 75.6541 234.365 75.6541 234.287C75.6541 233.953 76.8404 233.521 77.7935 233.521C78.3187 233.521 78.7659 233.423 78.7659 233.324C78.7659 233.03 76.5881 233.108 76.0431 233.422C75.3238 233.835 75.1098 233.776 74.7789 233.128C74.0985 231.812 74.0787 231.576 74.5457 231.262C75.9652 230.319 78.6298 230.221 80.4383 231.046ZM93.9944 231.399C93.9165 231.851 93.7606 231.949 93.0604 232.067C92.069 232.205 91.7962 232.087 91.9329 231.596C91.991 231.34 92.3021 231.183 93.0215 231.046C93.5856 230.947 94.0525 230.869 94.0717 230.869C94.0915 230.869 94.0525 231.105 93.9944 231.399ZM93.5466 232.794C93.5466 233.56 92.7691 233.894 91.6601 233.599C91.31 233.501 91.2711 233.403 91.4269 233.069C91.5828 232.715 91.7962 232.637 92.5941 232.637C93.1192 232.637 93.5466 232.715 93.5466 232.794ZM73.9037 238.55C74.9929 240.965 77.4045 241.968 79.5631 240.867C80.2441 240.534 81.2164 239.492 81.4886 238.805C81.6636 238.392 81.8584 238.236 82.1887 238.236C82.7918 238.236 82.7726 238.51 82.0725 239.748C80.8274 241.948 78.1245 242.851 75.732 241.869C74.1764 241.221 72.7372 239.159 72.7372 237.567C72.7372 236.88 72.7761 236.841 73.0674 237.076C73.2425 237.234 73.6124 237.882 73.9037 238.55Z" fill="white"/>
<path d="M78.1047 219.574C76.5683 220.379 74.6818 221.656 74.6818 221.891C74.6818 221.97 74.8179 222.206 74.9737 222.402C75.2459 222.756 75.2651 222.756 75.9461 222.245C76.3153 221.95 76.7044 221.754 76.8015 221.833C77.0353 221.97 79.3498 220.713 79.3498 220.438C79.3498 220.32 79.5632 220.123 79.8359 220.005C80.3413 219.77 80.4 219.612 80.2052 219.102C80.0301 218.65 79.797 218.709 78.1047 219.574Z" fill="white"/>
<path d="M103.951 226.39C103.096 226.979 102.279 227.529 102.143 227.608C101.929 227.726 102.104 228.256 102.96 230.004C104.399 233.029 104.827 234.738 104.827 237.666C104.827 240.2 104.651 241.28 103.913 243.618L103.427 245.15L102.882 243.775C101.871 241.162 99.926 239.158 97.4754 238.236C95.7832 237.587 93.3524 237.489 91.6601 237.999C89.2095 238.766 87.1091 240.474 86.0396 242.596C83.881 246.878 85.1842 251.986 89.1124 254.697C90.0847 255.345 91.5049 255.954 91.6799 255.777C92.03 255.424 91.6991 254.991 90.7459 254.579C89.1124 253.852 87.654 252.418 86.7979 250.65C86.0786 249.197 86.0594 249.098 86.0594 246.996C86.0594 244.954 86.0978 244.737 86.6817 243.5C88.9182 238.707 94.7917 237.135 99.031 240.2C100.879 241.516 102.124 243.618 102.396 245.818C102.493 246.603 102.435 246.898 102.065 247.468L101.637 248.155L101.501 246.545C101.248 243.696 99.6922 241.378 97.2806 240.239C96.3083 239.767 95.939 239.709 94.2276 239.709C92.5353 239.709 92.1463 239.767 91.174 240.239C90.5709 240.514 89.6765 241.123 89.1904 241.575C88.3152 242.38 87.0317 244.6 87.2457 244.934C87.4789 245.327 87.829 245.052 88.1791 244.226C88.7234 242.871 90.0266 241.535 91.4461 240.867C93.8577 239.748 96.7363 240.2 98.7397 242.026C100.781 243.893 101.404 247.35 100.14 249.884C99.5759 251.023 98.3117 252.32 97.1445 252.929C96.2891 253.4 95.9582 253.46 94.2857 253.46C92.8273 253.46 92.3603 253.518 92.2823 253.734C92.0881 254.225 92.6324 254.363 94.4416 254.304C95.9001 254.245 96.3862 254.127 97.3394 253.656C98.817 252.929 100.14 251.593 100.82 250.159L101.346 249.02L104.496 251.652L105.06 250.984C106.461 249.334 107.88 246.309 108.677 243.362C109.144 241.634 109.183 241.162 109.183 237.843C109.183 234.542 109.125 234.031 108.658 232.283C108.152 230.358 106.83 227.293 105.975 226.017L105.508 225.329L103.951 226.39Z" fill="white"/>
<path d="M67.875 233.147C67.4668 234.64 67.2917 236.153 67.2917 238.059C67.2917 244.305 70.1697 250.101 75.2261 254.029C76.1211 254.716 76.5293 254.913 76.6852 254.756C76.8015 254.638 76.8602 254.52 76.8015 254.481C76.7631 254.442 76.199 254.009 75.557 253.518C72.0952 250.847 69.6056 247.036 68.4193 242.597C67.875 240.455 67.7389 236.683 68.1472 234.484C68.5164 232.519 68.5164 232.342 68.264 232.342C68.1663 232.342 67.9913 232.715 67.875 233.147Z" fill="white"/>
<path d="M113.481 239.846C113.19 243.5 112.411 246.329 110.837 249.609C110.214 250.906 109.922 251.711 110.039 251.829C110.156 251.947 110.448 251.632 110.817 250.964C112.275 248.391 113.579 244.128 113.968 240.691C114.221 238.392 114.221 238.236 113.89 238.236C113.695 238.236 113.598 238.687 113.481 239.846Z" fill="white"/>
<path d="M95.6861 241.673C95.6861 241.849 95.8803 242.046 96.1333 242.144C98.5647 243.107 99.965 246.447 98.9537 248.862C97.2033 252.988 91.2711 252.988 89.5015 248.862C89.3456 248.47 89.2095 247.566 89.1904 246.84C89.1904 245.248 88.7822 244.836 88.5873 246.191C88.1983 248.706 89.7347 251.22 92.2824 252.3C93.4495 252.791 95.7442 252.614 96.8922 251.927C98.7787 250.808 99.7899 249.059 99.7899 246.878C99.8091 244.659 98.7199 242.832 96.8334 241.849C95.725 241.3 95.6861 241.28 95.6861 241.673Z" fill="white"/>
<path d="M92.8854 243.048C91.1938 243.657 89.8708 245.798 90.1627 247.468C90.5518 249.629 92.1271 251.004 94.2276 251.004C95.8611 251.004 97.1056 250.238 97.8447 248.784C98.1366 248.215 98.1558 248.057 97.9424 248.057C97.8057 248.057 97.5725 248.313 97.4365 248.627C96.7555 250.316 94.3247 251.122 92.5743 250.218C90.532 249.157 89.9685 246.309 91.4461 244.6C92.2632 243.657 93.0605 243.284 94.2666 243.284C95.2778 243.284 95.589 243.107 94.9859 242.871C94.4998 242.675 93.7025 242.753 92.8854 243.048Z" fill="white"/>
<path d="M64.6271 252.104C64.1602 252.379 63.7909 252.654 63.7909 252.713C63.7909 252.929 65.5605 255.306 66.6107 256.524C67.1748 257.212 68.2442 258.272 68.9834 258.92C70.4616 260.217 73.6124 262.397 74.0206 262.397C74.2735 262.397 75.0708 261.062 75.0708 260.649C75.0708 260.551 74.6626 260.236 74.1566 259.922C71.6281 258.449 68.4582 255.502 66.6299 252.89C66.1246 252.183 65.6384 251.593 65.5803 251.593C65.5023 251.593 65.0743 251.829 64.6271 252.104Z" fill="white"/>
<path d="M81.9166 256.877C81.5275 258.135 81.5863 258.213 82.7726 258.468C84.6201 258.861 86.973 258.999 88.8984 258.842C90.5709 258.724 92.419 258.39 92.7883 258.174C92.9052 258.095 92.4963 256.367 92.3021 256.17C92.2632 256.131 91.4659 256.229 90.5325 256.406C88.4123 256.779 86.1367 256.779 84.1142 256.406C82.0527 256.033 82.1696 256.013 81.9166 256.877Z" fill="white"/>
</svg>
